<?xml version="1.0" encoding="utf-8"?>
<!-- Generator: Adobe Illustrator 25.2.1, SVG Export Plug-In . SVG Version: 6.00 Build 0)  -->
<svg version="1.1" id="Layer_1" xmlns="http://www.w3.org/2000/svg" xmlns:xlink="http://www.w3.org/1999/xlink" x="0px" y="0px"
	 width="415.7px" height="251.4px" viewBox="0 0 415.7 251.4" style="enable-background:new 0 0 415.7 251.4;" xml:space="preserve"
	>
<style type="text/css">
	.st0{fill:none;stroke:#8C8C8C;stroke-width:0.7087;stroke-linecap:round;}
	.st1{fill:#920000;}
	.st2{fill:#FFFFFF;}
	.st3{font-family:'CourierNewPS-BoldMT';}
	.st4{font-size:6px;}
	.st5{fill:#E6E6E6;stroke:#737373;stroke-width:0.3543;}
	.st6{fill:#FFFF6D;}
	.st7{font-family:'CourierNewPSMT';}
	.st8{fill:#24FF24;}
	.st9{fill:#B6DBFF;}
	.st10{fill:#B66DFF;}
	.st11{fill:#FFB6DB;}
	.st12{fill:#DB6D00;}
	.st13{fill:none;stroke:#0000FF;stroke-width:0.7087;stroke-linecap:round;}
	.st14{fill:#FFFF00;stroke:#FFFF00;stroke-width:0.7087;stroke-linecap:round;}
	.st15{fill:none;stroke:#000000;stroke-width:0.7087;stroke-linecap:round;}
	.st16{fill:none;stroke:#FF0000;stroke-width:0.7087;stroke-linecap:round;}
	.st17{fill:none;stroke:#FFFF00;stroke-width:0.7087;stroke-linecap:round;}
	.st18{fill:#006DDB;}
	.st19{fill:#FFFF00;}
	.st20{fill:#0000FF;}
	.st21{fill:#333333;stroke:#333333;stroke-width:0.2877;stroke-miterlimit:3.8362;}
	.st22{fill:#666666;}
	.st23{fill:#9C8F6D;}
	.st24{fill:#807C73;}
	.st25{fill:#DCDCDC;}
	.st26{fill:#1E1E1E;}
	.st27{fill:#B4B4B4;}
	.st28{font-family:'DroidSansMono';}
	.st29{font-size:4px;}
	.st30{font-size:24px;}
	.st31{font-size:12px;}
	.st32{fill:none;stroke:#FFFFFF;stroke-width:0.864;stroke-linecap:round;}
	.st33{fill:none;stroke:#FFFFFF;stroke-width:0.576;stroke-linecap:round;}
	.st34{fill:none;stroke:#FFFFFF;stroke-width:0.432;stroke-linecap:round;}
	.st35{fill:none;stroke:#FFFFFF;stroke-width:0.288;stroke-linecap:round;}
	.st36{fill:#9A916C;}
	.st37{fill:none;stroke:#9A916C;stroke-width:1.1027;}
	.st38{fill:none;stroke:#9A916C;stroke-width:0.72;}
	.st39{fill:#6E554B;}
	.st40{fill:#333333;}
	.st41{fill:#FF0000;}
	.st42{fill:#111111;}
	.st43{fill:#303030;}
	.st44{fill:#F0F0F0;}
	.st45{fill:#BEBEBE;}
	.st46{fill:#8C8C8C;}
</style>
<line class="st0" x1="223.9" y1="124.5" x2="238.7" y2="124.5"/>
<path class="st1" d="M229.6,121.5h18.2c0.6,0,1.1,0.5,1.1,1.1v3.8c0,0.6-0.5,1.1-1.1,1.1h-18.2c-0.6,0-1.1-0.5-1.1-1.1v-3.8
	C228.4,122,228.9,121.5,229.6,121.5z"/>
<text transform="matrix(1 0 0 1 235.0625 126.2575)" class="st2 st3 st4">5V</text>
<line class="st0" x1="223.9" y1="131.7" x2="238.7" y2="131.7"/>
<path d="M229.6,128.7h18.2c0.6,0,1.1,0.5,1.1,1.1v3.8c0,0.6-0.5,1.1-1.1,1.1h-18.2c-0.6,0-1.1-0.5-1.1-1.1v-3.8
	C228.4,129.2,228.9,128.7,229.6,128.7z"/>
<text transform="matrix(1 0 0 1 233.2622 133.4575)" class="st2 st3 st4">GND</text>
<line class="st0" x1="223.9" y1="138.9" x2="238.7" y2="138.9"/>
<path class="st1" d="M229.6,135.9h18.2c0.6,0,1.1,0.5,1.1,1.1v3.8c0,0.6-0.5,1.1-1.1,1.1h-18.2c-0.6,0-1.1-0.5-1.1-1.1V137
	C228.4,136.4,228.9,135.9,229.6,135.9z"/>
<text transform="matrix(1 0 0 1 231.4619 140.6575)" class="st2 st3 st4">3.3V</text>
<line class="st0" x1="223.9" y1="146.1" x2="339.5" y2="146.1"/>
<path class="st5" d="M229.7,143.3h17.8c0.6,0,1.1,0.5,1.1,1.1v3.4c0,0.6-0.5,1.1-1.1,1.1h-17.8c-0.6,0-1.1-0.5-1.1-1.1v-3.4
	C228.6,143.8,229.1,143.3,229.7,143.3z"/>
<text transform="matrix(1 0 0 1 231.4619 147.8575)" class="st3 st4">MOSI</text>
<path class="st6" d="M251.2,143.1H273c0.6,0,1.1,0.5,1.1,1.1v3.8c0,0.6-0.5,1.1-1.1,1.1h-21.8c-0.6,0-1.1-0.5-1.1-1.1v-3.8
	C250,143.6,250.5,143.1,251.2,143.1z"/>
<text transform="matrix(1 0 0 1 253.0616 147.8575)" class="st7 st4">GPIO3</text>
<path class="st8" d="M276.4,143.1H291c0.6,0,1.1,0.5,1.1,1.1v3.8c0,0.6-0.5,1.1-1.1,1.1h-14.6c-0.6,0-1.1-0.5-1.1-1.1v-3.8
	C275.2,143.6,275.7,143.1,276.4,143.1z"/>
<text transform="matrix(1 0 0 1 278.2622 147.8575)" class="st7 st4">TX0</text>
<path class="st9" d="M294.4,143.1H309c0.6,0,1.1,0.5,1.1,1.1v3.8c0,0.6-0.5,1.1-1.1,1.1h-14.6c-0.6,0-1.1-0.5-1.1-1.1v-3.8
	C293.2,143.6,293.7,143.1,294.4,143.1z"/>
<text transform="matrix(1 0 0 1 294.4619 147.8575)" class="st7 st4">RTS0</text>
<path class="st10" d="M312.4,143.1H327c0.6,0,1.1,0.5,1.1,1.1v3.8c0,0.6-0.5,1.1-1.1,1.1h-14.6c-0.6,0-1.1-0.5-1.1-1.1v-3.8
	C311.2,143.6,311.7,143.1,312.4,143.1z"/>
<text transform="matrix(1 0 0 1 312.4619 147.8575)" class="st7 st4">SCL1</text>
<path class="st11" d="M330.4,143.1h18.2c0.6,0,1.1,0.5,1.1,1.1v3.8c0,0.6-0.5,1.1-1.1,1.1h-18.2c-0.6,0-1.1-0.5-1.1-1.1v-3.8
	C329.2,143.6,329.7,143.1,330.4,143.1z"/>
<text transform="matrix(1 0 0 1 330.4616 147.8575)" class="st7 st4">PWM1B</text>
<line class="st0" x1="223.9" y1="153.3" x2="339.5" y2="153.3"/>
<path class="st5" d="M229.7,150.5h17.8c0.6,0,1.1,0.5,1.1,1.1v3.4c0,0.6-0.5,1.1-1.1,1.1h-17.8c-0.6,0-1.1-0.5-1.1-1.1v-3.4
	C228.6,151,229.1,150.5,229.7,150.5z"/>
<text transform="matrix(1 0 0 1 231.4619 155.0575)" class="st3 st4">MISO</text>
<path class="st6" d="M251.2,150.3H273c0.6,0,1.1,0.5,1.1,1.1v3.8c0,0.6-0.5,1.1-1.1,1.1h-21.8c-0.6,0-1.1-0.5-1.1-1.1v-3.8
	C250,150.8,250.5,150.3,251.2,150.3z"/>
<text transform="matrix(1 0 0 1 253.0616 155.0575)" class="st7 st4">GPIO4</text>
<path class="st8" d="M276.4,150.3H291c0.6,0,1.1,0.5,1.1,1.1v3.8c0,0.6-0.5,1.1-1.1,1.1h-14.6c-0.6,0-1.1-0.5-1.1-1.1v-3.8
	C275.2,150.8,275.7,150.3,276.4,150.3z"/>
<text transform="matrix(1 0 0 1 278.2622 155.0575)" class="st7 st4">RX0</text>
<path class="st9" d="M294.4,150.3H309c0.6,0,1.1,0.5,1.1,1.1v3.8c0,0.6-0.5,1.1-1.1,1.1h-14.6c-0.6,0-1.1-0.5-1.1-1.1v-3.8
	C293.2,150.8,293.7,150.3,294.4,150.3z"/>
<text transform="matrix(1 0 0 1 296.2622 155.0575)" class="st7 st4">TX1</text>
<path class="st10" d="M312.4,150.3H327c0.6,0,1.1,0.5,1.1,1.1v3.8c0,0.6-0.5,1.1-1.1,1.1h-14.6c-0.6,0-1.1-0.5-1.1-1.1v-3.8
	C311.2,150.8,311.7,150.3,312.4,150.3z"/>
<text transform="matrix(1 0 0 1 312.4619 155.0575)" class="st7 st4">SDA0</text>
<path class="st11" d="M330.4,150.3h18.2c0.6,0,1.1,0.5,1.1,1.1v3.8c0,0.6-0.5,1.1-1.1,1.1h-18.2c-0.6,0-1.1-0.5-1.1-1.1v-3.8
	C329.2,150.8,329.7,150.3,330.4,150.3z"/>
<text transform="matrix(1 0 0 1 330.4616 155.0575)" class="st7 st4">PWM2A</text>
<line class="st0" x1="223.9" y1="160.5" x2="339.5" y2="160.5"/>
<path class="st5" d="M229.7,157.7h17.8c0.6,0,1.1,0.5,1.1,1.1v3.4c0,0.6-0.5,1.1-1.1,1.1h-17.8c-0.6,0-1.1-0.5-1.1-1.1v-3.4
	C228.6,158.2,229.1,157.7,229.7,157.7z"/>
<text transform="matrix(1 0 0 1 233.2622 162.2575)" class="st3 st4">SCK</text>
<path class="st6" d="M251.2,157.5H273c0.6,0,1.1,0.5,1.1,1.1v3.8c0,0.6-0.5,1.1-1.1,1.1h-21.8c-0.6,0-1.1-0.5-1.1-1.1v-3.8
	C250,158,250.5,157.5,251.2,157.5z"/>
<text transform="matrix(1 0 0 1 253.0616 162.2575)" class="st7 st4">GPIO6</text>
<path class="st8" d="M276.4,157.5H291c0.6,0,1.1,0.5,1.1,1.1v3.8c0,0.6-0.5,1.1-1.1,1.1h-14.6c-0.6,0-1.1-0.5-1.1-1.1v-3.8
	C275.2,158,275.7,157.5,276.4,157.5z"/>
<text transform="matrix(1 0 0 1 276.4619 162.2575)" class="st7 st4">SCK0</text>
<path class="st9" d="M294.4,157.5H309c0.6,0,1.1,0.5,1.1,1.1v3.8c0,0.6-0.5,1.1-1.1,1.1h-14.6c-0.6,0-1.1-0.5-1.1-1.1v-3.8
	C293.2,158,293.7,157.5,294.4,157.5z"/>
<text transform="matrix(1 0 0 1 294.4619 162.2575)" class="st7 st4">CTS1</text>
<path class="st10" d="M312.4,157.5H327c0.6,0,1.1,0.5,1.1,1.1v3.8c0,0.6-0.5,1.1-1.1,1.1h-14.6c-0.6,0-1.1-0.5-1.1-1.1v-3.8
	C311.2,158,311.7,157.5,312.4,157.5z"/>
<text transform="matrix(1 0 0 1 312.4619 162.2575)" class="st7 st4">SDA1</text>
<path class="st11" d="M330.4,157.5h18.2c0.6,0,1.1,0.5,1.1,1.1v3.8c0,0.6-0.5,1.1-1.1,1.1h-18.2c-0.6,0-1.1-0.5-1.1-1.1v-3.8
	C329.2,158,329.7,157.5,330.4,157.5z"/>
<text transform="matrix(1 0 0 1 330.4616 162.2575)" class="st7 st4">PWM3A</text>
<line class="st0" x1="223.9" y1="167.7" x2="339.5" y2="167.7"/>
<path class="st5" d="M229.7,164.9h17.8c0.6,0,1.1,0.5,1.1,1.1v3.4c0,0.6-0.5,1.1-1.1,1.1h-17.8c-0.6,0-1.1-0.5-1.1-1.1V166
	C228.6,165.4,229.1,164.9,229.7,164.9z"/>
<text transform="matrix(1 0 0 1 235.0625 169.4575)" class="st3 st4">RX</text>
<path class="st6" d="M251.2,164.7H273c0.6,0,1.1,0.5,1.1,1.1v3.8c0,0.6-0.5,1.1-1.1,1.1h-21.8c-0.6,0-1.1-0.5-1.1-1.1v-3.8
	C250,165.2,250.5,164.7,251.2,164.7z"/>
<text transform="matrix(1 0 0 1 253.0616 169.4575)" class="st7 st4">GPIO5</text>
<path class="st8" d="M276.4,164.7H291c0.6,0,1.1,0.5,1.1,1.1v3.8c0,0.6-0.5,1.1-1.1,1.1h-14.6c-0.6,0-1.1-0.5-1.1-1.1v-3.8
	C275.2,165.2,275.7,164.7,276.4,164.7z"/>
<text transform="matrix(1 0 0 1 276.4619 169.4575)" class="st7 st4">CSn0</text>
<path class="st9" d="M294.4,164.7H309c0.6,0,1.1,0.5,1.1,1.1v3.8c0,0.6-0.5,1.1-1.1,1.1h-14.6c-0.6,0-1.1-0.5-1.1-1.1v-3.8
	C293.2,165.2,293.7,164.7,294.4,164.7z"/>
<text transform="matrix(1 0 0 1 296.2622 169.4575)" class="st7 st4">RX1</text>
<path class="st10" d="M312.4,164.7H327c0.6,0,1.1,0.5,1.1,1.1v3.8c0,0.6-0.5,1.1-1.1,1.1h-14.6c-0.6,0-1.1-0.5-1.1-1.1v-3.8
	C311.2,165.2,311.7,164.7,312.4,164.7z"/>
<text transform="matrix(1 0 0 1 312.4619 169.4575)" class="st7 st4">SCL0</text>
<path class="st11" d="M330.4,164.7h18.2c0.6,0,1.1,0.5,1.1,1.1v3.8c0,0.6-0.5,1.1-1.1,1.1h-18.2c-0.6,0-1.1-0.5-1.1-1.1v-3.8
	C329.2,165.2,329.7,164.7,330.4,164.7z"/>
<text transform="matrix(1 0 0 1 330.4616 169.4575)" class="st7 st4">PWM2B</text>
<line class="st0" x1="176.3" y1="124.5" x2="40.9" y2="124.5"/>
<path class="st5" d="M152.6,121.7h17.8c0.6,0,1.1,0.5,1.1,1.1v3.4c0,0.6-0.5,1.1-1.1,1.1h-17.8c-0.6,0-1.1-0.5-1.1-1.1v-3.4
	C151.4,122.2,151.9,121.7,152.6,121.7z"/>
<text transform="matrix(1 0 0 1 157.8972 126.2575)" class="st3 st4">A0</text>
<path class="st6" d="M127.2,121.5H149c0.6,0,1.1,0.5,1.1,1.1v3.8c0,0.6-0.5,1.1-1.1,1.1h-21.8c-0.6,0-1.1-0.5-1.1-1.1v-3.8
	C126.1,122,126.6,121.5,127.2,121.5z"/>
<text transform="matrix(1 0 0 1 127.2961 126.2575)" class="st7 st4">GPIO29</text>
<path class="st8" d="M109.2,121.5h14.6c0.6,0,1.1,0.5,1.1,1.1v3.8c0,0.6-0.5,1.1-1.1,1.1h-14.6c-0.6,0-1.1-0.5-1.1-1.1v-3.8
	C108.1,122,108.6,121.5,109.2,121.5z"/>
<text transform="matrix(1 0 0 1 109.2966 126.2575)" class="st7 st4">CSn1</text>
<path class="st9" d="M91.2,121.5h14.6c0.6,0,1.1,0.5,1.1,1.1v3.8c0,0.6-0.5,1.1-1.1,1.1H91.2c-0.6,0-1.1-0.5-1.1-1.1v-3.8
	C90.1,122,90.6,121.5,91.2,121.5z"/>
<text transform="matrix(1 0 0 1 93.0969 126.2575)" class="st7 st4">RX0</text>
<path class="st10" d="M73.2,121.5h14.6c0.6,0,1.1,0.5,1.1,1.1v3.8c0,0.6-0.5,1.1-1.1,1.1H73.2c-0.6,0-1.1-0.5-1.1-1.1v-3.8
	C72.1,122,72.6,121.5,73.2,121.5z"/>
<text transform="matrix(1 0 0 1 73.2966 126.2575)" class="st7 st4">SCL0</text>
<path class="st11" d="M51.6,121.5h18.2c0.6,0,1.1,0.5,1.1,1.1v3.8c0,0.6-0.5,1.1-1.1,1.1H51.6c-0.6,0-1.1-0.5-1.1-1.1v-3.8
	C50.5,122,51,121.5,51.6,121.5z"/>
<text transform="matrix(1 0 0 1 51.6963 126.2575)" class="st7 st4">PWM6B</text>
<path class="st12" d="M33.6,121.5h14.6c0.6,0,1.1,0.5,1.1,1.1v3.8c0,0.6-0.5,1.1-1.1,1.1H33.6c-0.6,0-1.1-0.5-1.1-1.1v-3.8
	C32.5,122,33,121.5,33.6,121.5z"/>
<text transform="matrix(1 0 0 1 33.6966 126.2575)" class="st7 st4">ADC3</text>
<line class="st0" x1="176.3" y1="131.7" x2="40.9" y2="131.7"/>
<path class="st5" d="M152.6,128.9h17.8c0.6,0,1.1,0.5,1.1,1.1v3.4c0,0.6-0.5,1.1-1.1,1.1h-17.8c-0.6,0-1.1-0.5-1.1-1.1V130
	C151.4,129.4,151.9,128.9,152.6,128.9z"/>
<text transform="matrix(1 0 0 1 157.8972 133.4575)" class="st3 st4">A1</text>
<path class="st6" d="M127.2,128.7H149c0.6,0,1.1,0.5,1.1,1.1v3.8c0,0.6-0.5,1.1-1.1,1.1h-21.8c-0.6,0-1.1-0.5-1.1-1.1v-3.8
	C126.1,129.2,126.6,128.7,127.2,128.7z"/>
<text transform="matrix(1 0 0 1 127.2961 133.4575)" class="st7 st4">GPIO28</text>
<path class="st8" d="M109.2,128.7h14.6c0.6,0,1.1,0.5,1.1,1.1v3.8c0,0.6-0.5,1.1-1.1,1.1h-14.6c-0.6,0-1.1-0.5-1.1-1.1v-3.8
	C108.1,129.2,108.6,128.7,109.2,128.7z"/>
<text transform="matrix(1 0 0 1 111.0969 133.4575)" class="st7 st4">RX1</text>
<path class="st9" d="M91.2,128.7h14.6c0.6,0,1.1,0.5,1.1,1.1v3.8c0,0.6-0.5,1.1-1.1,1.1H91.2c-0.6,0-1.1-0.5-1.1-1.1v-3.8
	C90.1,129.2,90.6,128.7,91.2,128.7z"/>
<text transform="matrix(1 0 0 1 93.0969 133.4575)" class="st7 st4">TX0</text>
<path class="st10" d="M73.2,128.7h14.6c0.6,0,1.1,0.5,1.1,1.1v3.8c0,0.6-0.5,1.1-1.1,1.1H73.2c-0.6,0-1.1-0.5-1.1-1.1v-3.8
	C72.1,129.2,72.6,128.7,73.2,128.7z"/>
<text transform="matrix(1 0 0 1 73.2966 133.4575)" class="st7 st4">SDA0</text>
<path class="st11" d="M51.6,128.7h18.2c0.6,0,1.1,0.5,1.1,1.1v3.8c0,0.6-0.5,1.1-1.1,1.1H51.6c-0.6,0-1.1-0.5-1.1-1.1v-3.8
	C50.5,129.2,51,128.7,51.6,128.7z"/>
<text transform="matrix(1 0 0 1 51.6963 133.4575)" class="st7 st4">PWM6A</text>
<path class="st12" d="M33.6,128.7h14.6c0.6,0,1.1,0.5,1.1,1.1v3.8c0,0.6-0.5,1.1-1.1,1.1H33.6c-0.6,0-1.1-0.5-1.1-1.1v-3.8
	C32.5,129.2,33,128.7,33.6,128.7z"/>
<text transform="matrix(1 0 0 1 33.6966 133.4575)" class="st7 st4">ADC2</text>
<line class="st0" x1="176.3" y1="138.9" x2="40.9" y2="138.9"/>
<path class="st5" d="M152.6,136.1h17.8c0.6,0,1.1,0.5,1.1,1.1v3.4c0,0.6-0.5,1.1-1.1,1.1h-17.8c-0.6,0-1.1-0.5-1.1-1.1v-3.4
	C151.4,136.6,151.9,136.1,152.6,136.1z"/>
<text transform="matrix(1 0 0 1 157.8972 140.6575)" class="st3 st4">A2</text>
<path class="st6" d="M127.2,135.9H149c0.6,0,1.1,0.5,1.1,1.1v3.8c0,0.6-0.5,1.1-1.1,1.1h-21.8c-0.6,0-1.1-0.5-1.1-1.1V137
	C126.1,136.4,126.6,135.9,127.2,135.9z"/>
<text transform="matrix(1 0 0 1 127.2961 140.6575)" class="st7 st4">GPIO27</text>
<path class="st8" d="M109.2,135.9h14.6c0.6,0,1.1,0.5,1.1,1.1v3.8c0,0.6-0.5,1.1-1.1,1.1h-14.6c-0.6,0-1.1-0.5-1.1-1.1V137
	C108.1,136.4,108.6,135.9,109.2,135.9z"/>
<text transform="matrix(1 0 0 1 111.0969 140.6575)" class="st7 st4">TX1</text>
<path class="st9" d="M91.2,135.9h14.6c0.6,0,1.1,0.5,1.1,1.1v3.8c0,0.6-0.5,1.1-1.1,1.1H91.2c-0.6,0-1.1-0.5-1.1-1.1V137
	C90.1,136.4,90.6,135.9,91.2,135.9z"/>
<text transform="matrix(1 0 0 1 91.2966 140.6575)" class="st7 st4">RTS1</text>
<path class="st10" d="M73.2,135.9h14.6c0.6,0,1.1,0.5,1.1,1.1v3.8c0,0.6-0.5,1.1-1.1,1.1H73.2c-0.6,0-1.1-0.5-1.1-1.1V137
	C72.1,136.4,72.6,135.9,73.2,135.9z"/>
<text transform="matrix(1 0 0 1 73.2966 140.6575)" class="st7 st4">SCL1</text>
<path class="st11" d="M51.6,135.9h18.2c0.6,0,1.1,0.5,1.1,1.1v3.8c0,0.6-0.5,1.1-1.1,1.1H51.6c-0.6,0-1.1-0.5-1.1-1.1V137
	C50.5,136.4,51,135.9,51.6,135.9z"/>
<text transform="matrix(1 0 0 1 51.6963 140.6575)" class="st7 st4">PWM5B</text>
<path class="st12" d="M33.6,135.9h14.6c0.6,0,1.1,0.5,1.1,1.1v3.8c0,0.6-0.5,1.1-1.1,1.1H33.6c-0.6,0-1.1-0.5-1.1-1.1V137
	C32.5,136.4,33,135.9,33.6,135.9z"/>
<text transform="matrix(1 0 0 1 33.6966 140.6575)" class="st7 st4">ADC1</text>
<line class="st0" x1="176.3" y1="146.1" x2="40.9" y2="146.1"/>
<path class="st5" d="M152.6,143.3h17.8c0.6,0,1.1,0.5,1.1,1.1v3.4c0,0.6-0.5,1.1-1.1,1.1h-17.8c-0.6,0-1.1-0.5-1.1-1.1v-3.4
	C151.4,143.8,151.9,143.3,152.6,143.3z"/>
<text transform="matrix(1 0 0 1 157.8972 147.8575)" class="st3 st4">A3</text>
<path class="st6" d="M127.2,143.1H149c0.6,0,1.1,0.5,1.1,1.1v3.8c0,0.6-0.5,1.1-1.1,1.1h-21.8c-0.6,0-1.1-0.5-1.1-1.1v-3.8
	C126.1,143.6,126.6,143.1,127.2,143.1z"/>
<text transform="matrix(1 0 0 1 127.2961 147.8575)" class="st7 st4">GPIO26</text>
<path class="st8" d="M109.2,143.1h14.6c0.6,0,1.1,0.5,1.1,1.1v3.8c0,0.6-0.5,1.1-1.1,1.1h-14.6c-0.6,0-1.1-0.5-1.1-1.1v-3.8
	C108.1,143.6,108.6,143.1,109.2,143.1z"/>
<text transform="matrix(1 0 0 1 109.2966 147.8575)" class="st7 st4">SCK1</text>
<path class="st9" d="M91.2,143.1h14.6c0.6,0,1.1,0.5,1.1,1.1v3.8c0,0.6-0.5,1.1-1.1,1.1H91.2c-0.6,0-1.1-0.5-1.1-1.1v-3.8
	C90.1,143.6,90.6,143.1,91.2,143.1z"/>
<text transform="matrix(1 0 0 1 91.2966 147.8575)" class="st7 st4">CTS1</text>
<path class="st10" d="M73.2,143.1h14.6c0.6,0,1.1,0.5,1.1,1.1v3.8c0,0.6-0.5,1.1-1.1,1.1H73.2c-0.6,0-1.1-0.5-1.1-1.1v-3.8
	C72.1,143.6,72.6,143.1,73.2,143.1z"/>
<text transform="matrix(1 0 0 1 73.2966 147.8575)" class="st7 st4">SDA1</text>
<path class="st11" d="M51.6,143.1h18.2c0.6,0,1.1,0.5,1.1,1.1v3.8c0,0.6-0.5,1.1-1.1,1.1H51.6c-0.6,0-1.1-0.5-1.1-1.1v-3.8
	C50.5,143.6,51,143.1,51.6,143.1z"/>
<text transform="matrix(1 0 0 1 51.6963 147.8575)" class="st7 st4">PWM5A</text>
<path class="st12" d="M33.6,143.1h14.6c0.6,0,1.1,0.5,1.1,1.1v3.8c0,0.6-0.5,1.1-1.1,1.1H33.6c-0.6,0-1.1-0.5-1.1-1.1v-3.8
	C32.5,143.6,33,143.1,33.6,143.1z"/>
<text transform="matrix(1 0 0 1 33.6966 147.8575)" class="st7 st4">ADC0</text>
<line class="st0" x1="176.3" y1="153.3" x2="60.7" y2="153.3"/>
<path class="st5" d="M152.6,150.5h17.8c0.6,0,1.1,0.5,1.1,1.1v3.4c0,0.6-0.5,1.1-1.1,1.1h-17.8c-0.6,0-1.1-0.5-1.1-1.1v-3.4
	C151.4,151,151.9,150.5,152.6,150.5z"/>
<text transform="matrix(1 0 0 1 156.0969 155.0575)" class="st3 st4">SDA</text>
<path class="st6" d="M127.2,150.3H149c0.6,0,1.1,0.5,1.1,1.1v3.8c0,0.6-0.5,1.1-1.1,1.1h-21.8c-0.6,0-1.1-0.5-1.1-1.1v-3.8
	C126.1,150.8,126.6,150.3,127.2,150.3z"/>
<text transform="matrix(1 0 0 1 127.2961 155.0575)" class="st7 st4">GPIO24</text>
<path class="st8" d="M109.2,150.3h14.6c0.6,0,1.1,0.5,1.1,1.1v3.8c0,0.6-0.5,1.1-1.1,1.1h-14.6c-0.6,0-1.1-0.5-1.1-1.1v-3.8
	C108.1,150.8,108.6,150.3,109.2,150.3z"/>
<text transform="matrix(1 0 0 1 111.0969 155.0575)" class="st7 st4">RX1</text>
<path class="st9" d="M91.2,150.3h14.6c0.6,0,1.1,0.5,1.1,1.1v3.8c0,0.6-0.5,1.1-1.1,1.1H91.2c-0.6,0-1.1-0.5-1.1-1.1v-3.8
	C90.1,150.8,90.6,150.3,91.2,150.3z"/>
<text transform="matrix(1 0 0 1 93.0969 155.0575)" class="st7 st4">TX1</text>
<path class="st10" d="M73.2,150.3h14.6c0.6,0,1.1,0.5,1.1,1.1v3.8c0,0.6-0.5,1.1-1.1,1.1H73.2c-0.6,0-1.1-0.5-1.1-1.1v-3.8
	C72.1,150.8,72.6,150.3,73.2,150.3z"/>
<text transform="matrix(1 0 0 1 73.2966 155.0575)" class="st7 st4">SDA0</text>
<path class="st11" d="M51.6,150.3h18.2c0.6,0,1.1,0.5,1.1,1.1v3.8c0,0.6-0.5,1.1-1.1,1.1H51.6c-0.6,0-1.1-0.5-1.1-1.1v-3.8
	C50.5,150.8,51,150.3,51.6,150.3z"/>
<text transform="matrix(1 0 0 1 51.6963 155.0575)" class="st7 st4">PWM4A</text>
<line class="st0" x1="176.3" y1="160.5" x2="60.7" y2="160.5"/>
<path class="st5" d="M152.6,157.7h17.8c0.6,0,1.1,0.5,1.1,1.1v3.4c0,0.6-0.5,1.1-1.1,1.1h-17.8c-0.6,0-1.1-0.5-1.1-1.1v-3.4
	C151.4,158.2,151.9,157.7,152.6,157.7z"/>
<text transform="matrix(1 0 0 1 156.0969 162.2575)" class="st3 st4">SCL</text>
<path class="st6" d="M127.2,157.5H149c0.6,0,1.1,0.5,1.1,1.1v3.8c0,0.6-0.5,1.1-1.1,1.1h-21.8c-0.6,0-1.1-0.5-1.1-1.1v-3.8
	C126.1,158,126.6,157.5,127.2,157.5z"/>
<text transform="matrix(1 0 0 1 127.2961 162.2575)" class="st7 st4">GPIO25</text>
<path class="st8" d="M109.2,157.5h14.6c0.6,0,1.1,0.5,1.1,1.1v3.8c0,0.6-0.5,1.1-1.1,1.1h-14.6c-0.6,0-1.1-0.5-1.1-1.1v-3.8
	C108.1,158,108.6,157.5,109.2,157.5z"/>
<text transform="matrix(1 0 0 1 109.2966 162.2575)" class="st7 st4">CSn1</text>
<path class="st9" d="M91.2,157.5h14.6c0.6,0,1.1,0.5,1.1,1.1v3.8c0,0.6-0.5,1.1-1.1,1.1H91.2c-0.6,0-1.1-0.5-1.1-1.1v-3.8
	C90.1,158,90.6,157.5,91.2,157.5z"/>
<text transform="matrix(1 0 0 1 93.0969 162.2575)" class="st7 st4">RX1</text>
<path class="st10" d="M73.2,157.5h14.6c0.6,0,1.1,0.5,1.1,1.1v3.8c0,0.6-0.5,1.1-1.1,1.1H73.2c-0.6,0-1.1-0.5-1.1-1.1v-3.8
	C72.1,158,72.6,157.5,73.2,157.5z"/>
<text transform="matrix(1 0 0 1 73.2966 162.2575)" class="st7 st4">SCL0</text>
<path class="st11" d="M51.6,157.5h18.2c0.6,0,1.1,0.5,1.1,1.1v3.8c0,0.6-0.5,1.1-1.1,1.1H51.6c-0.6,0-1.1-0.5-1.1-1.1v-3.8
	C50.5,158,51,157.5,51.6,157.5z"/>
<text transform="matrix(1 0 0 1 51.6963 162.2575)" class="st7 st4">PWM4B</text>
<line class="st0" x1="176.3" y1="167.7" x2="60.7" y2="167.7"/>
<path class="st5" d="M152.6,164.9h17.8c0.6,0,1.1,0.5,1.1,1.1v3.4c0,0.6-0.5,1.1-1.1,1.1h-17.8c-0.6,0-1.1-0.5-1.1-1.1V166
	C151.4,165.4,151.9,164.9,152.6,164.9z"/>
<text transform="matrix(1 0 0 1 157.8972 169.4575)" class="st3 st4">TX</text>
<path class="st6" d="M127.2,164.7H149c0.6,0,1.1,0.5,1.1,1.1v3.8c0,0.6-0.5,1.1-1.1,1.1h-21.8c-0.6,0-1.1-0.5-1.1-1.1v-3.8
	C126.1,165.2,126.6,164.7,127.2,164.7z"/>
<text transform="matrix(1 0 0 1 127.2961 169.4575)" class="st7 st4">GPIO20</text>
<path class="st8" d="M109.2,164.7h14.6c0.6,0,1.1,0.5,1.1,1.1v3.8c0,0.6-0.5,1.1-1.1,1.1h-14.6c-0.6,0-1.1-0.5-1.1-1.1v-3.8
	C108.1,165.2,108.6,164.7,109.2,164.7z"/>
<text transform="matrix(1 0 0 1 111.0969 169.4575)" class="st7 st4">RX0</text>
<path class="st9" d="M91.2,164.7h14.6c0.6,0,1.1,0.5,1.1,1.1v3.8c0,0.6-0.5,1.1-1.1,1.1H91.2c-0.6,0-1.1-0.5-1.1-1.1v-3.8
	C90.1,165.2,90.6,164.7,91.2,164.7z"/>
<text transform="matrix(1 0 0 1 93.0969 169.4575)" class="st7 st4">TX1</text>
<path class="st10" d="M73.2,164.7h14.6c0.6,0,1.1,0.5,1.1,1.1v3.8c0,0.6-0.5,1.1-1.1,1.1H73.2c-0.6,0-1.1-0.5-1.1-1.1v-3.8
	C72.1,165.2,72.6,164.7,73.2,164.7z"/>
<text transform="matrix(1 0 0 1 73.2966 169.4575)" class="st7 st4">SDA0</text>
<path class="st11" d="M51.6,164.7h18.2c0.6,0,1.1,0.5,1.1,1.1v3.8c0,0.6-0.5,1.1-1.1,1.1H51.6c-0.6,0-1.1-0.5-1.1-1.1v-3.8
	C50.5,165.2,51,164.7,51.6,164.7z"/>
<text transform="matrix(1 0 0 1 51.6963 169.4575)" class="st7 st4">PWM2A</text>
<g>
	<line class="st13" x1="196.6" y1="207.7" x2="196.6" y2="194.4"/>
	<line class="st14" x1="199.8" y1="200.5" x2="199.8" y2="194.4"/>
	<line class="st15" x1="189.8" y1="221.8" x2="189.8" y2="194.4"/>
	<line class="st16" x1="193.3" y1="214.9" x2="193.3" y2="194.4"/>
	<line class="st16" x1="193.3" y1="214.9" x2="214.7" y2="214.9"/>
	<line class="st17" x1="199.9" y1="200.5" x2="214.7" y2="200.5"/>
	<line class="st13" x1="196.6" y1="207.7" x2="214.7" y2="207.7"/>
	<line class="st15" x1="189.8" y1="222" x2="214.7" y2="222"/>
	<path class="st1" d="M215.9,211.8h18.2c0.6,0,1.1,0.5,1.1,1.1v3.8c0,0.6-0.5,1.1-1.1,1.1h-18.2c-0.6,0-1.1-0.5-1.1-1.1v-3.8
		C214.8,212.3,215.3,211.8,215.9,211.8z"/>
	<text transform="matrix(1 0 0 1 217.8015 216.5833)" class="st2 st3 st4">3.3V</text>
	<path class="st6" d="M215.9,197.5h18.2c0.6,0,1.1,0.5,1.1,1.1v3.8c0,0.6-0.5,1.1-1.1,1.1h-18.2c-0.6,0-1.1-0.5-1.1-1.1v-3.8
		C214.7,198,215.2,197.5,215.9,197.5z"/>
	<text transform="matrix(1 0 0 1 219.5685 202.2604)" class="st3 st4">SCL</text>
	<path class="st18" d="M215.9,204.7h18.2c0.6,0,1.1,0.5,1.1,1.1v3.8c0,0.6-0.5,1.1-1.1,1.1h-18.2c-0.6,0-1.1-0.5-1.1-1.1v-3.8
		C214.7,205.2,215.2,204.7,215.9,204.7z"/>
	<text transform="matrix(1 0 0 1 219.5685 209.4604)" class="st2 st3 st4">SDA</text>
	<path d="M215.9,218.9h18.2c0.6,0,1.1,0.5,1.1,1.1v3.8c0,0.6-0.5,1.1-1.1,1.1h-18.2c-0.6,0-1.1-0.5-1.1-1.1v-3.8
		C214.8,219.4,215.3,218.9,215.9,218.9z"/>
	<text transform="matrix(1 0 0 1 219.6018 223.7063)" class="st2 st3 st4">GND</text>
	<path class="st19" d="M215.9,197.5h18.2c0.6,0,1.1,0.5,1.1,1.1v3.8c0,0.6-0.5,1.1-1.1,1.1h-18.2c-0.6,0-1.1-0.5-1.1-1.1v-3.8
		C214.7,198,215.2,197.5,215.9,197.5z"/>
	<text transform="matrix(1 0 0 1 219.5684 202.2603)" class="st3 st4">SCL</text>
	<path class="st20" d="M215.9,204.7h18.2c0.6,0,1.1,0.5,1.1,1.1v3.8c0,0.6-0.5,1.1-1.1,1.1h-18.2c-0.6,0-1.1-0.5-1.1-1.1v-3.8
		C214.7,205.2,215.2,204.7,215.9,204.7z"/>
	<text transform="matrix(1 0 0 1 219.5684 209.4604)" class="st2 st3 st4">SDA</text>
	<g>
		<rect id="rect18427" x="187.2" y="179.3" class="st21" width="15.5" height="12.6"/>
		<rect id="rect18429" x="184.5" y="191.7" class="st22" width="20.8" height="3.3"/>
		<g>
			<rect id="rect18431" x="186.9" y="188.1" class="st22" width="2.8" height="3.9"/>
			<rect id="rect18433" x="190.9" y="188.1" class="st22" width="1.5" height="3.9"/>
			<rect id="rect18435" x="194.4" y="188.1" class="st22" width="1.1" height="3.9"/>
			<rect id="rect18437" x="197.6" y="188.1" class="st22" width="1.5" height="3.9"/>
			<rect id="rect18439" x="200.4" y="188.1" class="st22" width="2.6" height="3.9"/>
		</g>
	</g>
</g>
<line class="st0" x1="218.4" y1="207.7" x2="325.8" y2="207.7"/>
<path class="st20" d="M215.9,204.6h18.2c0.6,0,1.1,0.5,1.1,1.1v3.8c0,0.6-0.5,1.1-1.1,1.1h-18.2c-0.6,0-1.1-0.5-1.1-1.1v-3.8
	C214.8,205.2,215.3,204.6,215.9,204.6z"/>
<text transform="matrix(1 0 0 1 217.8015 209.4292)" class="st2 st3 st4">SDA1</text>
<path class="st6" d="M237.5,204.6h21.8c0.6,0,1.1,0.5,1.1,1.1v3.8c0,0.6-0.5,1.1-1.1,1.1h-21.8c-0.6,0-1.1-0.5-1.1-1.1v-3.8
	C236.4,205.2,236.9,204.6,237.5,204.6z"/>
<text transform="matrix(1 0 0 1 237.6009 209.4292)" class="st7 st4">GPIO22</text>
<path class="st8" d="M262.7,204.6h14.6c0.6,0,1.1,0.5,1.1,1.1v3.8c0,0.6-0.5,1.1-1.1,1.1h-14.6c-0.6,0-1.1-0.5-1.1-1.1v-3.8
	C261.6,205.2,262.1,204.6,262.7,204.6z"/>
<text transform="matrix(1 0 0 1 262.8015 209.4292)" class="st7 st4">SCK0</text>
<path class="st9" d="M280.7,204.6h14.6c0.6,0,1.1,0.5,1.1,1.1v3.8c0,0.6-0.5,1.1-1.1,1.1h-14.6c-0.6,0-1.1-0.5-1.1-1.1v-3.8
	C279.6,205.2,280.1,204.6,280.7,204.6z"/>
<text transform="matrix(1 0 0 1 280.8015 209.4292)" class="st7 st4">CTS1</text>
<path class="st10" d="M298.7,204.6h14.6c0.6,0,1.1,0.5,1.1,1.1v3.8c0,0.6-0.5,1.1-1.1,1.1h-14.6c-0.6,0-1.1-0.5-1.1-1.1v-3.8
	C297.6,205.2,298.1,204.6,298.7,204.6z"/>
<text transform="matrix(1 0 0 1 298.8015 209.4292)" class="st7 st4">SDA1</text>
<path class="st11" d="M316.7,204.6h18.2c0.6,0,1.1,0.5,1.1,1.1v3.8c0,0.6-0.5,1.1-1.1,1.1h-18.2c-0.6,0-1.1-0.5-1.1-1.1v-3.8
	C315.6,205.2,316.1,204.6,316.7,204.6z"/>
<text transform="matrix(1 0 0 1 316.8012 209.4292)" class="st7 st4">PWM3A</text>
<line class="st0" x1="219.1" y1="200.5" x2="325.8" y2="200.5"/>
<path class="st19" d="M215.9,197.4h18.2c0.6,0,1.1,0.5,1.1,1.1v3.8c0,0.6-0.5,1.1-1.1,1.1h-18.2c-0.6,0-1.1-0.5-1.1-1.1v-3.8
	C214.7,198,215.2,197.4,215.9,197.4z"/>
<text transform="matrix(1 0 0 1 217.7516 202.2292)" class="st3 st4">SCL1</text>
<path class="st6" d="M237.5,197.4h21.8c0.6,0,1.1,0.5,1.1,1.1v3.8c0,0.6-0.5,1.1-1.1,1.1h-21.8c-0.6,0-1.1-0.5-1.1-1.1v-3.8
	C236.3,198,236.8,197.4,237.5,197.4z"/>
<text transform="matrix(1 0 0 1 237.551 202.2292)" class="st7 st4">GPIO23</text>
<path class="st8" d="M262.7,197.4h14.6c0.6,0,1.1,0.5,1.1,1.1v3.8c0,0.6-0.5,1.1-1.1,1.1h-14.6c-0.6,0-1.1-0.5-1.1-1.1v-3.8
	C261.5,198,262,197.4,262.7,197.4z"/>
<text transform="matrix(1 0 0 1 264.5518 202.2292)" class="st7 st4">TX0</text>
<path class="st9" d="M280.7,197.4h14.6c0.6,0,1.1,0.5,1.1,1.1v3.8c0,0.6-0.5,1.1-1.1,1.1h-14.6c-0.6,0-1.1-0.5-1.1-1.1v-3.8
	C279.5,198,280,197.4,280.7,197.4z"/>
<text transform="matrix(1 0 0 1 280.7516 202.2292)" class="st7 st4">RTS1</text>
<path class="st10" d="M298.7,197.4h14.6c0.6,0,1.1,0.5,1.1,1.1v3.8c0,0.6-0.5,1.1-1.1,1.1h-14.6c-0.6,0-1.1-0.5-1.1-1.1v-3.8
	C297.5,198,298,197.4,298.7,197.4z"/>
<text transform="matrix(1 0 0 1 298.7516 202.2292)" class="st7 st4">SCL1</text>
<path class="st11" d="M316.7,197.4h18.2c0.6,0,1.1,0.5,1.1,1.1v3.8c0,0.6-0.5,1.1-1.1,1.1h-18.2c-0.6,0-1.1-0.5-1.1-1.1v-3.8
	C315.5,198,316,197.4,316.7,197.4z"/>
<text transform="matrix(1 0 0 1 316.7513 202.2292)" class="st7 st4">PWM3B</text>
<g>
	<g>
		<g transform="matrix(4.496676e-11 -1 1 4.496676e-11 -5.6534 81.9188)">
			
				<rect x="-15.7" y="225.8" transform="matrix(-2.535182e-06 -1 1 -2.535182e-06 -241.4965 214.7687)" class="st23" width="4.7" height="4.7"/>
		</g>
		<g transform="matrix(4.457863e-11 -1 1 4.457863e-11 -6.24 82.5054)">
			
				<rect x="-14.8" y="227.3" transform="matrix(-2.535182e-06 -1 1 -2.535182e-06 -242.083 215.3553)" class="st24" width="2.8" height="2.8"/>
		</g>
	</g>
	<line class="st0" x1="224.1" y1="95.3" x2="350.5" y2="95.3"/>
	<path class="st5" d="M229.9,92.4h28.6c0.6,0,1.1,0.5,1.1,1.1V97c0,0.6-0.5,1.1-1.1,1.1h-28.6c-0.6,0-1.1-0.5-1.1-1.1v-3.4
		C228.8,92.9,229.3,92.4,229.9,92.4z"/>
	<text transform="matrix(1 0 0 1 229.8679 97.0329)" class="st3 st4">NEOPIXEL</text>
	<path class="st6" d="M262.2,92.2H284c0.6,0,1.1,0.5,1.1,1.1v3.8c0,0.6-0.5,1.1-1.1,1.1h-21.8c-0.6,0-1.1-0.5-1.1-1.1v-3.8
		C261,92.8,261.5,92.2,262.2,92.2z"/>
	<text transform="matrix(1 0 0 1 262.2685 97.0329)" class="st7 st4">GPIO12</text>
	<path class="st8" d="M287.4,92.2H302c0.6,0,1.1,0.5,1.1,1.1v3.8c0,0.6-0.5,1.1-1.1,1.1h-14.6c-0.6,0-1.1-0.5-1.1-1.1v-3.8
		C286.2,92.8,286.7,92.2,287.4,92.2z"/>
	<text transform="matrix(1 0 0 1 289.2693 97.0329)" class="st7 st4">RX1</text>
	<path class="st9" d="M305.4,92.2H320c0.6,0,1.1,0.5,1.1,1.1v3.8c0,0.6-0.5,1.1-1.1,1.1h-14.6c-0.6,0-1.1-0.5-1.1-1.1v-3.8
		C304.2,92.8,304.7,92.2,305.4,92.2z"/>
	<text transform="matrix(1 0 0 1 307.2693 97.0329)" class="st7 st4">TX0</text>
	<path class="st10" d="M323.4,92.2H338c0.6,0,1.1,0.5,1.1,1.1v3.8c0,0.6-0.5,1.1-1.1,1.1h-14.6c-0.6,0-1.1-0.5-1.1-1.1v-3.8
		C322.2,92.8,322.7,92.2,323.4,92.2z"/>
	<text transform="matrix(1 0 0 1 323.469 97.0329)" class="st7 st4">SDA0</text>
	<path class="st11" d="M341.4,92.2h18.2c0.6,0,1.1,0.5,1.1,1.1v3.8c0,0.6-0.5,1.1-1.1,1.1h-18.2c-0.6,0-1.1-0.5-1.1-1.1v-3.8
		C340.2,92.8,340.7,92.2,341.4,92.2z"/>
	<text transform="matrix(1 0 0 1 341.4688 97.0329)" class="st7 st4">PWM6A</text>
	<line class="st0" x1="232" y1="102.5" x2="372.1" y2="102.5"/>
	<path class="st5" d="M229.9,99.6h50.2c0.6,0,1.1,0.5,1.1,1.1v3.4c0,0.6-0.5,1.1-1.1,1.1h-50.2c-0.6,0-1.1-0.5-1.1-1.1v-3.4
		C228.8,100.1,229.3,99.6,229.9,99.6z"/>
	<text transform="matrix(1 0 0 1 229.8661 104.2329)" class="st3 st4">NEOPIXEL_POWER</text>
	<path class="st6" d="M283.8,99.4h21.8c0.6,0,1.1,0.5,1.1,1.1v3.8c0,0.6-0.5,1.1-1.1,1.1h-21.8c-0.6,0-1.1-0.5-1.1-1.1v-3.8
		C282.6,100,283.1,99.4,283.8,99.4z"/>
	<text transform="matrix(1 0 0 1 283.8684 104.2329)" class="st7 st4">GPIO11</text>
	<path class="st8" d="M309,99.4h14.6c0.6,0,1.1,0.5,1.1,1.1v3.8c0,0.6-0.5,1.1-1.1,1.1H309c-0.6,0-1.1-0.5-1.1-1.1v-3.8
		C307.8,100,308.3,99.4,309,99.4z"/>
	<text transform="matrix(1 0 0 1 310.8694 104.2329)" class="st7 st4">TX1</text>
	<path class="st9" d="M327,99.4h14.6c0.6,0,1.1,0.5,1.1,1.1v3.8c0,0.6-0.5,1.1-1.1,1.1H327c-0.6,0-1.1-0.5-1.1-1.1v-3.8
		C325.8,100,326.3,99.4,327,99.4z"/>
	<text transform="matrix(1 0 0 1 327.0691 104.2329)" class="st7 st4">RTS1</text>
	<path class="st10" d="M345,99.4h14.6c0.6,0,1.1,0.5,1.1,1.1v3.8c0,0.6-0.5,1.1-1.1,1.1H345c-0.6,0-1.1-0.5-1.1-1.1v-3.8
		C343.8,100,344.3,99.4,345,99.4z"/>
	<text transform="matrix(1 0 0 1 345.0691 104.2329)" class="st7 st4">SCL1</text>
	<path class="st11" d="M363,99.4h18.2c0.6,0,1.1,0.5,1.1,1.1v3.8c0,0.6-0.5,1.1-1.1,1.1H363c-0.6,0-1.1-0.5-1.1-1.1v-3.8
		C361.8,100,362.3,99.4,363,99.4z"/>
	<text transform="matrix(1 0 0 1 363.0688 104.2329)" class="st7 st4">PWM5B</text>
</g>
<g>
	<g>
		<line class="st0" x1="41.9" y1="186" x2="161.1" y2="186"/>
		<path class="st5" d="M47.8,183.2h21.4c0.6,0,1.1,0.5,1.1,1.1v3.4c0,0.6-0.5,1.1-1.1,1.1H47.8c-0.6,0-1.1-0.5-1.1-1.1v-3.4
			C46.7,183.7,47.2,183.2,47.8,183.2z"/>
		<text transform="matrix(1 0 0 1 47.7368 187.791)" class="st3 st4">BUTTON</text>
		<path class="st6" d="M72.8,183h21.8c0.6,0,1.1,0.5,1.1,1.1v3.8c0,0.6-0.5,1.1-1.1,1.1H72.8c-0.6,0-1.1-0.5-1.1-1.1v-3.8
			C71.7,183.5,72.2,183,72.8,183z"/>
		<text transform="matrix(1 0 0 1 72.9369 187.791)" class="st7 st4">GPIO21</text>
		<path class="st8" d="M98,183h14.6c0.6,0,1.1,0.5,1.1,1.1v3.8c0,0.6-0.5,1.1-1.1,1.1H98c-0.6,0-1.1-0.5-1.1-1.1v-3.8
			C96.9,183.5,97.4,183,98,183z"/>
		<text transform="matrix(1 0 0 1 98.1375 187.791)" class="st7 st4">CSn0</text>
		<path class="st9" d="M116,183h14.6c0.6,0,1.1,0.5,1.1,1.1v3.8c0,0.6-0.5,1.1-1.1,1.1H116c-0.6,0-1.1-0.5-1.1-1.1v-3.8
			C114.9,183.5,115.4,183,116,183z"/>
		<text transform="matrix(1 0 0 1 117.9378 187.791)" class="st7 st4">RX1</text>
		<path class="st10" d="M134,183h14.6c0.6,0,1.1,0.5,1.1,1.1v3.8c0,0.6-0.5,1.1-1.1,1.1H134c-0.6,0-1.1-0.5-1.1-1.1v-3.8
			C132.9,183.5,133.4,183,134,183z"/>
		<text transform="matrix(1 0 0 1 134.1375 187.791)" class="st7 st4">SCL0</text>
		<path class="st11" d="M152,183h18.2c0.6,0,1.1,0.5,1.1,1.1v3.8c0,0.6-0.5,1.1-1.1,1.1H152c-0.6,0-1.1-0.5-1.1-1.1v-3.8
			C150.9,183.5,151.4,183,152,183z"/>
		<text transform="matrix(1 0 0 1 152.1372 187.791)" class="st7 st4">PWM2B</text>
		<g>
			<path class="st25" d="M42.7,181v-0.2c-0.2,0-0.4,0-0.6,0c-0.3,0-0.5,0-0.8-0.1v0.3h-3.1v-0.3c-0.2,0-0.4,0-0.6,0
				c-0.3,0-0.6,0-0.8-0.1v0.3h-1.3v9.9h1.3v0.2c0.2,0,0.3,0,0.5,0c0.3,0,0.6,0,0.9,0.1v-0.2h3.1v0.3c0.2,0,0.3,0,0.5,0
				c0.3,0,0.6,0,0.9,0.1v-0.4H44V181H42.7z"/>
			<circle class="st26" cx="39.7" cy="186" r="2.5"/>
			<rect x="35.5" y="190.8" class="st27" width="8.5" height="0.6"/>
			<rect x="35.5" y="180.6" class="st27" width="8.5" height="0.6"/>
		</g>
	</g>
	<text transform="matrix(1 0 0 1 35.0798 179.7034)" class="st28 st29">BOOT</text>
</g>
<path class="st5" d="M34.5,36.8H38c0.6,0,1.1,0.5,1.1,1.1v3.4c0,0.6-0.5,1.1-1.1,1.1h-3.4c-0.6,0-1.1-0.5-1.1-1.1V38
	C33.4,37.3,33.9,36.8,34.5,36.8z"/>
<text transform="matrix(1 0 0 1 41.2831 41.4408)" class="st3 st4">CircuitPython Name</text>
<path class="st1" d="M34.3,43.9h3.8c0.6,0,1.1,0.5,1.1,1.1v3.8c0,0.6-0.5,1.1-1.1,1.1h-3.8c-0.6,0-1.1-0.5-1.1-1.1V45
	C33.2,44.4,33.7,43.9,34.3,43.9z"/>
<text transform="matrix(1 0 0 1 41.2831 48.6408)" class="st3 st4">Power</text>
<path d="M34.3,51.1h3.8c0.6,0,1.1,0.5,1.1,1.1V56c0,0.6-0.5,1.1-1.1,1.1h-3.8c-0.6,0-1.1-0.5-1.1-1.1v-3.8
	C33.2,51.6,33.7,51.1,34.3,51.1z"/>
<text transform="matrix(1 0 0 1 41.2831 55.8408)" class="st3 st4">GND</text>
<path class="st6" d="M34.3,58.3h3.8c0.6,0,1.1,0.5,1.1,1.1v3.8c0,0.6-0.5,1.1-1.1,1.1h-3.8c-0.6,0-1.1-0.5-1.1-1.1v-3.8
	C33.2,58.8,33.7,58.3,34.3,58.3z"/>
<text transform="matrix(1 0 0 1 41.2831 63.0408)" class="st3 st4">Port</text>
<path class="st12" d="M34.3,65.5h3.8c0.6,0,1.1,0.5,1.1,1.1v3.8c0,0.6-0.5,1.1-1.1,1.1h-3.8c-0.6,0-1.1-0.5-1.1-1.1v-3.8
	C33.2,66,33.7,65.5,34.3,65.5z"/>
<text transform="matrix(1 0 0 1 41.2831 70.2408)" class="st3 st4">Analog</text>
<path class="st11" d="M34.3,72.7h3.8c0.6,0,1.1,0.5,1.1,1.1v3.8c0,0.6-0.5,1.1-1.1,1.1h-3.8c-0.6,0-1.1-0.5-1.1-1.1v-3.8
	C33.2,73.2,33.7,72.7,34.3,72.7z"/>
<text transform="matrix(1 0 0 1 41.2831 77.4408)" class="st3 st4">PWM</text>
<path class="st9" d="M34.3,79.9h3.8c0.6,0,1.1,0.5,1.1,1.1v3.8c0,0.6-0.5,1.1-1.1,1.1h-3.8c-0.6,0-1.1-0.5-1.1-1.1V81
	C33.2,80.4,33.7,79.9,34.3,79.9z"/>
<text transform="matrix(1 0 0 1 41.2831 84.6408)" class="st3 st4">UART</text>
<path class="st8" d="M34.3,87.1h3.8c0.6,0,1.1,0.5,1.1,1.1V92c0,0.6-0.5,1.1-1.1,1.1h-3.8c-0.6,0-1.1-0.5-1.1-1.1v-3.8
	C33.2,87.6,33.7,87.1,34.3,87.1z"/>
<text transform="matrix(1 0 0 1 41.2831 91.8408)" class="st3 st4">SPI</text>
<path class="st10" d="M34.3,94.3h3.8c0.6,0,1.1,0.5,1.1,1.1v3.8c0,0.6-0.5,1.1-1.1,1.1h-3.8c-0.6,0-1.1-0.5-1.1-1.1v-3.8
	C33.2,94.8,33.7,94.3,34.3,94.3z"/>
<text transform="matrix(1 0 0 1 41.2831 99.0408)" class="st3 st4">I2C</text>
<text transform="matrix(1 0 0 1 211.3283 54.0909)" class="st28 st30">QT Py RP2040</text>
<text transform="matrix(1 0 0 1 116.4975 77.4409)" class="st28 st31">https://www.adafruit.com/product/4900</text>
<g>
	<desc>
		<referenceFile>QT Py RP2040 rev B_breadboard.svg</referenceFile>
	</desc>
	<g>
		<path d="M223.9,131.7c0-0.8,0.6-1.4,1.4-1.4v-4.4c-0.8,0-1.4-0.6-1.4-1.4c0-0.8,0.6-1.4,1.4-1.4c-0.4-3.6-3.5-6.3-7.1-6.3h-36
			c-3.7,0-6.7,2.8-7.1,6.3c0.8,0,1.4,0.6,1.4,1.4c0,0.8-0.6,1.4-1.4,1.4v4.4c0.8,0,1.4,0.6,1.4,1.4s-0.6,1.4-1.4,1.4v4.4
			c0.8,0,1.4,0.6,1.4,1.4c0,0.8-0.6,1.4-1.4,1.4v4.4c0.8,0,1.4,0.6,1.4,1.4c0,0.8-0.6,1.4-1.4,1.4v4.4c0.8,0,1.4,0.6,1.4,1.4
			c0,0.8-0.6,1.4-1.4,1.4v4.4c0.8,0,1.4,0.6,1.4,1.4c0,0.8-0.6,1.4-1.4,1.4v4.4c0.8,0,1.4,0.6,1.4,1.4c0,0.8-0.6,1.4-1.4,1.4
			c0.4,3.6,3.5,6.3,7.1,6.3h36c3.7,0,6.7-2.8,7.1-6.3c-0.8,0-1.4-0.6-1.4-1.4c0-0.8,0.6-1.4,1.4-1.4v-4.4c-0.8,0-1.4-0.6-1.4-1.4
			c0-0.8,0.6-1.4,1.4-1.4v-4.4c-0.8,0-1.4-0.6-1.4-1.4c0-0.8,0.6-1.4,1.4-1.4v-4.4c-0.8,0-1.4-0.6-1.4-1.4c0-0.8,0.6-1.4,1.4-1.4
			v-4.4c-0.8,0-1.4-0.6-1.4-1.4c0-0.8,0.6-1.4,1.4-1.4v-4.4C224.5,133.1,223.9,132.5,223.9,131.7z M178.5,169.1
			c-0.8,0-1.4-0.6-1.4-1.4s0.6-1.4,1.4-1.4c0.8,0,1.4,0.6,1.4,1.4C179.9,168.5,179.3,169.1,178.5,169.1z M178.5,161.9
			c-0.8,0-1.4-0.6-1.4-1.4c0-0.8,0.6-1.4,1.4-1.4c0.8,0,1.4,0.6,1.4,1.4C179.9,161.3,179.3,161.9,178.5,161.9z M178.5,154.7
			c-0.8,0-1.4-0.6-1.4-1.4c0-0.8,0.6-1.4,1.4-1.4c0.8,0,1.4,0.6,1.4,1.4S179.3,154.7,178.5,154.7z M178.5,147.5
			c-0.8,0-1.4-0.6-1.4-1.4c0-0.8,0.6-1.4,1.4-1.4c0.8,0,1.4,0.6,1.4,1.4C179.9,146.9,179.3,147.5,178.5,147.5z M178.5,140.3
			c-0.8,0-1.4-0.6-1.4-1.4c0-0.8,0.6-1.4,1.4-1.4c0.8,0,1.4,0.6,1.4,1.4C179.9,139.7,179.3,140.3,178.5,140.3z M178.5,133.1
			c-0.8,0-1.4-0.6-1.4-1.4c0-0.8,0.6-1.4,1.4-1.4c0.8,0,1.4,0.6,1.4,1.4S179.3,133.1,178.5,133.1z M178.5,125.9
			c-0.8,0-1.4-0.6-1.4-1.4c0-0.8,0.6-1.4,1.4-1.4c0.8,0,1.4,0.6,1.4,1.4S179.3,125.9,178.5,125.9z M188.7,133.1
			c0,0.5-0.4,0.8-0.9,0.8c-0.5,0-0.8-0.4-0.8-0.9c0,0,0,0,0,0c0-0.5,0.4-0.8,0.9-0.8C188.3,132.2,188.7,132.6,188.7,133.1
			L188.7,133.1z M188.7,121.2c0,0.5-0.4,0.8-0.9,0.8c-0.5,0-0.8-0.4-0.8-0.9c0,0,0,0,0,0c0-0.5,0.4-0.8,0.9-0.8
			C188.3,120.4,188.7,120.8,188.7,121.2C188.7,121.2,188.7,121.2,188.7,121.2z M192.8,131.7c0,0.5-0.4,0.9-0.9,0.9
			c-0.5,0-0.9-0.4-0.9-0.9v0c0-0.5,0.4-0.9,0.9-0.9C192.4,130.7,192.8,131.1,192.8,131.7L192.8,131.7z M209.2,131.7
			c0,0.5-0.4,0.9-0.9,0.9c-0.5,0-0.9-0.4-0.9-0.9v0c0-0.5,0.4-0.9,0.9-0.9C208.8,130.7,209.2,131.1,209.2,131.7L209.2,131.7z
			 M213.2,133.1c0,0.5-0.4,0.8-0.9,0.8c-0.5,0-0.8-0.4-0.8-0.9v0c0-0.5,0.4-0.8,0.9-0.8C212.8,132.2,213.2,132.6,213.2,133.1
			L213.2,133.1z M213.2,121.2c0,0.5-0.4,0.8-0.9,0.8c-0.5,0-0.8-0.4-0.8-0.9v0c0-0.5,0.4-0.8,0.9-0.8
			C212.8,120.4,213.2,120.8,213.2,121.2L213.2,121.2z M221.7,169.1c-0.8,0-1.4-0.6-1.4-1.4s0.6-1.4,1.4-1.4c0.8,0,1.4,0.6,1.4,1.4
			C223.1,168.5,222.5,169.1,221.7,169.1z M221.7,161.9c-0.8,0-1.4-0.6-1.4-1.4c0-0.8,0.6-1.4,1.4-1.4c0.8,0,1.4,0.6,1.4,1.4
			C223.1,161.3,222.5,161.9,221.7,161.9z M221.7,154.7c-0.8,0-1.4-0.6-1.4-1.4c0-0.8,0.6-1.4,1.4-1.4c0.8,0,1.4,0.6,1.4,1.4
			S222.5,154.7,221.7,154.7z M221.7,147.5c-0.8,0-1.4-0.6-1.4-1.4c0-0.8,0.6-1.4,1.4-1.4c0.8,0,1.4,0.6,1.4,1.4
			C223.1,146.9,222.5,147.5,221.7,147.5z M221.7,140.3c-0.8,0-1.4-0.6-1.4-1.4c0-0.8,0.6-1.4,1.4-1.4c0.8,0,1.4,0.6,1.4,1.4
			C223.1,139.7,222.5,140.3,221.7,140.3z M221.7,133.1c-0.8,0-1.4-0.6-1.4-1.4c0-0.8,0.6-1.4,1.4-1.4c0.8,0,1.4,0.6,1.4,1.4
			S222.5,133.1,221.7,133.1z M221.7,125.9c-0.8,0-1.4-0.6-1.4-1.4c0-0.8,0.6-1.4,1.4-1.4c0.8,0,1.4,0.6,1.4,1.4
			C223.1,125.3,222.5,125.9,221.7,125.9z"/>
		<g>
			<path class="st2" d="M211.8,151.4v-2.1l-0.4,0.3l-0.3-0.5l0.8-0.6h0.6v2.8L211.8,151.4L211.8,151.4z"/>
			<path class="st2" d="M213.3,151.4v-2.1l-0.4,0.3l-0.3-0.5l0.8-0.6h0.6v2.8L213.3,151.4L213.3,151.4z"/>
			<path class="st2" d="M211,154.6l-0.6-1.7h0l0,1.7h-0.5v-2.8h0.7l0.6,1.7h0l0-1.7h0.5v2.8H211z"/>
			<path class="st2" d="M211.9,154.6v-2.8h1.3v0.6h-0.7v0.6h0.7v0.5h-0.7v0.6h0.8v0.6C213.3,154.6,211.9,154.6,211.9,154.6z"/>
			<path class="st2" d="M215.3,153.2c0,0.2,0,0.4-0.1,0.6c0,0.2-0.1,0.3-0.2,0.5c-0.1,0.1-0.2,0.2-0.3,0.3s-0.3,0.1-0.4,0.1
				c-0.2,0-0.3,0-0.4-0.1s-0.2-0.2-0.3-0.3c-0.1-0.1-0.2-0.3-0.2-0.5c0-0.2-0.1-0.4-0.1-0.6c0-0.2,0-0.4,0.1-0.6
				c0-0.2,0.1-0.3,0.2-0.5c0.1-0.1,0.2-0.2,0.3-0.3c0.1-0.1,0.3-0.1,0.4-0.1c0.2,0,0.3,0,0.4,0.1c0.1,0.1,0.2,0.2,0.3,0.3
				c0.1,0.1,0.2,0.3,0.2,0.5C215.3,152.8,215.3,153,215.3,153.2z M214.7,153.2c0-0.1,0-0.2,0-0.3c0-0.1,0-0.2-0.1-0.3
				c0-0.1-0.1-0.1-0.1-0.2c-0.1,0-0.1-0.1-0.2-0.1s-0.1,0-0.2,0.1c-0.1,0-0.1,0.1-0.1,0.2c0,0.1-0.1,0.2-0.1,0.3c0,0.1,0,0.2,0,0.3
				c0,0.1,0,0.2,0,0.3c0,0.1,0,0.2,0.1,0.3c0,0.1,0.1,0.1,0.1,0.2c0.1,0,0.1,0.1,0.2,0.1c0.1,0,0.1,0,0.2-0.1c0,0,0.1-0.1,0.1-0.2
				c0-0.1,0.1-0.2,0.1-0.3C214.7,153.4,214.7,153.3,214.7,153.2z"/>
		</g>
		<g>
			<path class="st2" d="M216.8,174.6l-0.4-1.1h-0.2v1.1h-0.6v-2.8h0.9c0.3,0,0.5,0.1,0.6,0.2c0.2,0.1,0.2,0.4,0.2,0.6
				c0,0.1,0,0.2,0,0.3c0,0.1-0.1,0.2-0.1,0.2c0,0.1-0.1,0.1-0.1,0.1c0,0-0.1,0.1-0.1,0.1l0.5,1.3L216.8,174.6L216.8,174.6z
				 M216.7,172.7c0-0.1,0-0.1,0-0.2c0,0,0-0.1-0.1-0.1c0,0-0.1,0-0.1-0.1c0,0-0.1,0-0.1,0h-0.2v0.7h0.2c0.1,0,0.2,0,0.2-0.1
				C216.7,172.9,216.7,172.8,216.7,172.7z"/>
			<path class="st2" d="M218.7,172.5c0-0.1-0.1-0.1-0.2-0.1c-0.1,0-0.1,0-0.2,0c-0.1,0-0.1,0-0.2,0.1c-0.1,0-0.1,0.1-0.1,0.2
				c0,0.1,0,0.2,0.1,0.2c0.1,0,0.1,0.1,0.3,0.2c0.1,0,0.1,0.1,0.2,0.1c0.1,0,0.1,0.1,0.2,0.2c0.1,0.1,0.1,0.1,0.1,0.2
				c0,0.1,0.1,0.2,0.1,0.3c0,0.2,0,0.3-0.1,0.4c0,0.1-0.1,0.2-0.2,0.3s-0.2,0.1-0.3,0.2c-0.1,0-0.2,0.1-0.3,0.1
				c-0.2,0-0.3,0-0.5-0.1c-0.1-0.1-0.3-0.1-0.3-0.2l0.3-0.5c0.1,0.1,0.1,0.1,0.2,0.2c0.1,0,0.2,0.1,0.2,0.1c0.1,0,0.1,0,0.2-0.1
				c0.1-0.1,0.1-0.1,0.1-0.2c0-0.1,0-0.2-0.1-0.2c-0.1-0.1-0.2-0.1-0.3-0.2c-0.1,0-0.1-0.1-0.2-0.1c-0.1,0-0.1-0.1-0.2-0.2
				c-0.1-0.1-0.1-0.1-0.1-0.2c0-0.1,0-0.2,0-0.3c0-0.2,0-0.3,0.1-0.4c0.1-0.1,0.1-0.2,0.2-0.3c0.1-0.1,0.2-0.1,0.3-0.2
				c0.1,0,0.2-0.1,0.3-0.1c0.2,0,0.3,0,0.4,0.1c0.1,0.1,0.2,0.1,0.3,0.2L218.7,172.5z"/>
			<path class="st2" d="M220.2,172.3v2.3h-0.6v-2.3H219v-0.5h1.7v0.5H220.2z"/>
		</g>
		<g>
			<path class="st2" d="M187.6,158.3c0,0.2,0,0.3-0.1,0.4c0,0.1-0.1,0.2-0.2,0.2c-0.1,0.1-0.2,0.1-0.2,0.1c-0.1,0-0.2,0-0.3,0H186
				v-2.8h0.8c0.1,0,0.2,0,0.3,0c0.1,0,0.2,0.1,0.2,0.1c0.1,0.1,0.1,0.1,0.2,0.2c0,0.1,0.1,0.2,0.1,0.4c0,0.2,0,0.3-0.1,0.4
				c-0.1,0.1-0.1,0.2-0.2,0.2v0c0,0,0.1,0,0.1,0.1c0,0,0.1,0.1,0.1,0.1s0.1,0.1,0.1,0.2C187.6,158.1,187.6,158.2,187.6,158.3z
				 M187,157.1c0-0.1,0-0.2-0.1-0.2c-0.1,0-0.1-0.1-0.2-0.1h-0.2v0.6h0.2c0.1,0,0.1,0,0.2-0.1C186.9,157.3,187,157.3,187,157.1z
				 M187,158.3c0-0.1,0-0.1,0-0.2c0,0,0-0.1-0.1-0.1c0,0-0.1,0-0.1-0.1c0,0-0.1,0-0.1,0h-0.2v0.7h0.2c0.1,0,0.2,0,0.2-0.1
				C187,158.5,187,158.4,187,158.3z"/>
			<path class="st2" d="M189.6,157.7c0,0.2,0,0.4-0.1,0.6c0,0.2-0.1,0.3-0.2,0.5c-0.1,0.1-0.2,0.2-0.3,0.3c-0.1,0.1-0.3,0.1-0.4,0.1
				s-0.3,0-0.4-0.1c-0.1-0.1-0.2-0.2-0.3-0.3s-0.1-0.3-0.2-0.5c0-0.2-0.1-0.4-0.1-0.6c0-0.2,0-0.4,0.1-0.6c0-0.2,0.1-0.3,0.2-0.5
				c0.1-0.1,0.2-0.2,0.3-0.3c0.1-0.1,0.3-0.1,0.4-0.1c0.2,0,0.3,0,0.4,0.1c0.1,0.1,0.2,0.2,0.3,0.3c0.1,0.1,0.1,0.3,0.2,0.5
				C189.5,157.3,189.6,157.5,189.6,157.7z M189,157.7c0-0.1,0-0.2,0-0.3c0-0.1,0-0.2-0.1-0.3c0-0.1-0.1-0.1-0.1-0.2
				s-0.1-0.1-0.2-0.1c-0.1,0-0.1,0-0.2,0.1s-0.1,0.1-0.1,0.2c0,0.1-0.1,0.2-0.1,0.3c0,0.1,0,0.2,0,0.3c0,0.1,0,0.2,0,0.3
				c0,0.1,0,0.2,0.1,0.3c0,0.1,0.1,0.1,0.1,0.2c0,0,0.1,0.1,0.2,0.1s0.1,0,0.2-0.1c0,0,0.1-0.1,0.1-0.2c0-0.1,0.1-0.2,0.1-0.3
				C189,158,189,157.8,189,157.7z"/>
			<path class="st2" d="M191.6,157.7c0,0.2,0,0.4-0.1,0.6c0,0.2-0.1,0.3-0.2,0.5c-0.1,0.1-0.2,0.2-0.3,0.3c-0.1,0.1-0.3,0.1-0.4,0.1
				s-0.3,0-0.4-0.1c-0.1-0.1-0.2-0.2-0.3-0.3s-0.1-0.3-0.2-0.5c0-0.2-0.1-0.4-0.1-0.6c0-0.2,0-0.4,0.1-0.6c0-0.2,0.1-0.3,0.2-0.5
				c0.1-0.1,0.2-0.2,0.3-0.3c0.1-0.1,0.3-0.1,0.4-0.1c0.2,0,0.3,0,0.4,0.1c0.1,0.1,0.2,0.2,0.3,0.3c0.1,0.1,0.1,0.3,0.2,0.5
				C191.5,157.3,191.6,157.5,191.6,157.7z M191,157.7c0-0.1,0-0.2,0-0.3c0-0.1,0-0.2-0.1-0.3c0-0.1-0.1-0.1-0.1-0.2
				s-0.1-0.1-0.2-0.1c-0.1,0-0.1,0-0.2,0.1s-0.1,0.1-0.1,0.2c0,0.1-0.1,0.2-0.1,0.3c0,0.1,0,0.2,0,0.3c0,0.1,0,0.2,0,0.3
				c0,0.1,0,0.2,0.1,0.3c0,0.1,0.1,0.1,0.1,0.2c0,0,0.1,0.1,0.2,0.1s0.1,0,0.2-0.1c0,0,0.1-0.1,0.1-0.2c0-0.1,0.1-0.2,0.1-0.3
				C191,158,191,157.8,191,157.7z"/>
			<path class="st2" d="M192.5,156.9v2.3H192v-2.3h-0.5v-0.5h1.5v0.5H192.5z"/>
		</g>
		<g>
			<path class="st2" d="M178.8,173.9v-2.8h0.6v2.8H178.8z"/>
			<path class="st2" d="M181.4,171.9c0,0.1,0,0.2,0,0.3c0,0.1-0.1,0.2-0.1,0.2c0,0.1-0.1,0.1-0.1,0.2c-0.1,0.1-0.1,0.1-0.2,0.2
				l-0.5,0.6h0.9v0.6h-1.7v-0.6l0.9-1c0.1-0.1,0.1-0.2,0.2-0.2c0-0.1,0.1-0.2,0.1-0.2c0-0.1,0-0.2-0.1-0.2c0-0.1-0.1-0.1-0.2-0.1
				c-0.1,0-0.1,0-0.2,0.1c-0.1,0.1-0.1,0.2-0.1,0.3l-0.6-0.1c0-0.3,0.1-0.5,0.3-0.6c0.2-0.1,0.4-0.2,0.6-0.2c0.1,0,0.2,0,0.4,0.1
				c0.1,0,0.2,0.1,0.3,0.2c0.1,0.1,0.1,0.2,0.2,0.3C181.3,171.6,181.4,171.7,181.4,171.9z"/>
			<path class="st2" d="M183,173.9c-0.1,0.1-0.3,0.1-0.5,0.1c-0.2,0-0.3,0-0.5-0.1c-0.1-0.1-0.2-0.2-0.3-0.3
				c-0.1-0.1-0.2-0.3-0.2-0.5c-0.1-0.2-0.1-0.4-0.1-0.6c0-0.2,0-0.4,0.1-0.6c0.1-0.2,0.1-0.3,0.2-0.5c0.1-0.1,0.2-0.2,0.3-0.3
				c0.1-0.1,0.3-0.1,0.5-0.1c0.2,0,0.3,0,0.5,0.1c0.1,0.1,0.2,0.2,0.3,0.3l-0.3,0.5c0-0.1-0.1-0.1-0.2-0.2c-0.1,0-0.1-0.1-0.2-0.1
				c-0.1,0-0.2,0-0.2,0.1c-0.1,0-0.1,0.1-0.2,0.2c0,0.1-0.1,0.2-0.1,0.3c0,0.1,0,0.2,0,0.3c0,0.1,0,0.2,0,0.3c0,0.1,0.1,0.2,0.1,0.3
				c0,0.1,0.1,0.1,0.2,0.2c0.1,0,0.1,0.1,0.2,0.1c0.1,0,0.2,0,0.2-0.1c0.1,0,0.1-0.1,0.2-0.2l0.4,0.4
				C183.2,173.7,183.1,173.8,183,173.9z"/>
			<path class="st2" d="M183.9,173.9v-2.1l-0.4,0.3l-0.3-0.5l0.8-0.6h0.6v2.8L183.9,173.9L183.9,173.9z"/>
		</g>
		<g>
			<path class="st2" d="M216.2,118.8c0.1-0.1,0.1-0.1,0.1-0.3c0-0.1,0-0.1,0-0.2c0,0,0-0.1-0.1-0.1c0,0-0.1,0-0.1,0c0,0-0.1,0-0.1,0
				h-0.3v0.7h0.3C216,118.9,216.1,118.9,216.2,118.8z"/>
			<path class="st2" d="M224.9,121.7c-1-2.8-3.6-4.9-6.8-4.9h-36c-3.2,0-5.9,2.1-6.8,4.9h11.9c-0.1-0.1-0.1-0.3-0.1-0.4
				c0-0.5,0.4-0.9,0.9-0.9c0.5,0,0.9,0.4,0.9,0.9c0,0.2-0.1,0.3-0.1,0.4h23.1c-0.1-0.1-0.1-0.3-0.1-0.4c0-0.5,0.4-0.9,0.9-0.9
				s0.9,0.4,0.9,0.9c0,0.2-0.1,0.3-0.1,0.4H224.9z M183.4,121.3h-2.3c-0.3,0-0.6,0-0.8-0.1c-0.2-0.1-0.5-0.2-0.6-0.4
				c-0.2-0.2-0.3-0.4-0.4-0.7c-0.1-0.3-0.1-0.6-0.1-0.9c0-0.3,0.1-0.6,0.2-0.9c0.1-0.3,0.2-0.5,0.4-0.7c0.2-0.2,0.4-0.3,0.7-0.4
				c0.2-0.1,0.5-0.2,0.8-0.2c0.3,0,0.6,0.1,0.8,0.2c0.2,0.1,0.5,0.2,0.6,0.4c0.2,0.2,0.3,0.4,0.4,0.7c0.1,0.3,0.2,0.5,0.2,0.8
				c0,0.1,0,0.2,0,0.3c0,0.1-0.1,0.2-0.1,0.3c0,0.1-0.1,0.2-0.1,0.3c0,0.1-0.1,0.1-0.1,0.2v0l0.6,0
				C183.4,120.2,183.4,121.3,183.4,121.3z M186.3,118.3h-0.9v2.9h-1.2v-2.9h-0.9v-1.2h3.1V118.3z M218.8,117.8l0.4,1.1l0.4-1.1h1.3
				l-1.2,2.2v1.2h-1.2v-1.2l-1.1-2.2H218.8z M214.5,117.2h1.6c0.2,0,0.4,0,0.6,0.1c0.2,0,0.3,0.1,0.5,0.2c0.1,0.1,0.3,0.2,0.3,0.4
				c0.1,0.2,0.1,0.4,0.1,0.7c0,0.3,0,0.5-0.1,0.6c-0.1,0.2-0.2,0.3-0.3,0.4c-0.1,0.1-0.3,0.2-0.5,0.2c-0.2,0.1-0.4,0.1-0.6,0.1h-0.3
				v1.3h-1.2L214.5,117.2L214.5,117.2z"/>
			<path class="st2" d="M181.7,118.5c-0.1-0.1-0.1-0.1-0.2-0.2c-0.1,0-0.2-0.1-0.3-0.1c-0.1,0-0.2,0-0.3,0.1c-0.1,0-0.2,0.1-0.2,0.2
				c-0.1,0.1-0.1,0.2-0.2,0.3c0,0.1-0.1,0.2-0.1,0.4c0,0.1,0,0.3,0.1,0.4c0,0.1,0.1,0.2,0.2,0.3c0.1,0.1,0.1,0.1,0.2,0.2
				s0.2,0.1,0.3,0.1c0.1,0,0.2,0,0.3-0.1s0.2-0.1,0.2-0.2c0.1-0.1,0.1-0.2,0.2-0.3c0-0.1,0.1-0.2,0.1-0.4c0-0.1,0-0.3-0.1-0.4
				C181.8,118.7,181.8,118.6,181.7,118.5z"/>
		</g>
		<path class="st2" d="M218.9,168.3l-1.3,0.4v0.2h1.3v0.7h-3.3v-1c0-0.3,0.1-0.6,0.2-0.7c0.2-0.2,0.4-0.3,0.7-0.3c0.1,0,0.2,0,0.3,0
			c0.1,0,0.2,0.1,0.2,0.1c0.1,0,0.1,0.1,0.2,0.1c0,0.1,0.1,0.1,0.1,0.2l1.5-0.6V168.3z M216.7,168.4c-0.1,0-0.2,0-0.2,0
			c-0.1,0-0.1,0.1-0.1,0.1c0,0-0.1,0.1-0.1,0.1c0,0,0,0.1,0,0.1v0.2h0.8v-0.2c0-0.1,0-0.2-0.1-0.3
			C216.9,168.4,216.8,168.4,216.7,168.4z"/>
		<path class="st2" d="M218.9,165.9l-1.1,0.5l1.1,0.4v0.8l-1.7-0.8l-1.6,0.7v-0.8l1-0.4l-1-0.4v-0.8l1.5,0.7l1.7-0.8L218.9,165.9
			L218.9,165.9z"/>
		<g>
			<path class="st2" d="M218.1,144c-0.1,0-0.2-0.1-0.3-0.1c-0.1,0-0.2,0-0.3,0c-0.1,0-0.2,0-0.3,0c-0.1,0-0.2,0.1-0.3,0.1
				c-0.1,0-0.1,0.1-0.2,0.1c0,0.1-0.1,0.1-0.1,0.2s0,0.1,0.1,0.2c0,0.1,0.1,0.1,0.2,0.1c0.1,0,0.2,0.1,0.3,0.1c0.1,0,0.2,0,0.3,0
				c0.1,0,0.2,0,0.3,0c0.1,0,0.2,0,0.3-0.1c0.1,0,0.1-0.1,0.2-0.1c0-0.1,0.1-0.1,0.1-0.2s0-0.1-0.1-0.2
				C218.3,144.1,218.2,144,218.1,144z"/>
			<path class="st2" d="M225.3,144.7v-2.2h-8.8c-0.5,0-0.9,0.4-0.9,0.9v19.9c0,0.5,0.4,0.9,0.9,0.9h8.8v-2.2c-0.8,0-1.4-0.6-1.4-1.4
				c0-0.8,0.6-1.4,1.4-1.4v-4.4c-0.8,0-1.4-0.6-1.4-1.4c0-0.8,0.6-1.4,1.4-1.4v-4.4c-0.8,0-1.4-0.6-1.4-1.4
				C223.9,145.3,224.5,144.7,225.3,144.7z M218.9,163.1c-0.1,0.2-0.1,0.3-0.2,0.4l-0.5-0.4c0.1-0.1,0.1-0.1,0.2-0.2
				c0-0.1,0.1-0.2,0.1-0.3c0-0.1,0-0.2-0.1-0.2c-0.1-0.1-0.1-0.1-0.2-0.1c-0.1,0-0.2,0-0.2,0.1s-0.1,0.2-0.2,0.3
				c0,0.1-0.1,0.2-0.1,0.2c0,0.1-0.1,0.1-0.2,0.2c-0.1,0.1-0.1,0.1-0.2,0.1c-0.1,0-0.2,0-0.3,0c-0.2,0-0.3,0-0.4-0.1
				c-0.1-0.1-0.2-0.1-0.3-0.2c-0.1-0.1-0.1-0.2-0.2-0.3c0-0.1-0.1-0.2-0.1-0.3c0-0.2,0-0.3,0.1-0.5c0-0.1,0.1-0.2,0.2-0.3l0.5,0.4
				c-0.1,0.1-0.1,0.1-0.1,0.2c0,0.1,0,0.1,0,0.2c0,0.1,0,0.1,0.1,0.2c0,0.1,0.1,0.1,0.2,0.1c0.1,0,0.2,0,0.2-0.1
				c0-0.1,0.1-0.2,0.2-0.3c0-0.1,0.1-0.1,0.1-0.2c0-0.1,0.1-0.2,0.2-0.2c0.1-0.1,0.1-0.1,0.2-0.2c0.1,0,0.2-0.1,0.3-0.1
				c0.2,0,0.3,0,0.4,0.1c0.1,0.1,0.2,0.1,0.3,0.2s0.1,0.2,0.2,0.3c0,0.1,0.1,0.2,0.1,0.4C219,162.8,219,163,218.9,163.1z
				 M218.9,160.9c-0.1,0.1-0.2,0.3-0.3,0.4c-0.1,0.1-0.3,0.2-0.5,0.2c-0.2,0.1-0.4,0.1-0.6,0.1c-0.2,0-0.4,0-0.6-0.1
				c-0.2-0.1-0.3-0.1-0.5-0.2c-0.1-0.1-0.2-0.2-0.3-0.4c-0.1-0.1-0.1-0.3-0.1-0.5c0-0.2,0-0.4,0.1-0.5s0.2-0.3,0.3-0.3l0.5,0.4
				c-0.1,0.1-0.1,0.1-0.2,0.2c0,0.1-0.1,0.1-0.1,0.2c0,0.1,0,0.2,0.1,0.2c0,0.1,0.1,0.1,0.2,0.2c0.1,0,0.2,0.1,0.3,0.1
				c0.1,0,0.2,0,0.3,0c0.1,0,0.2,0,0.3,0c0.1,0,0.2-0.1,0.3-0.1c0.1,0,0.1-0.1,0.2-0.2c0-0.1,0.1-0.2,0.1-0.2c0-0.1,0-0.2-0.1-0.2
				s-0.1-0.1-0.2-0.2l0.4-0.4c0.1,0.1,0.2,0.2,0.3,0.3c0.1,0.1,0.1,0.3,0.1,0.5C219,160.5,219,160.7,218.9,160.9z M216.1,158v-0.8
				l1.3,0.8l1.5-0.8v0.8l-1.3,0.7v0h1.3v0.7h-2.8v-0.7h1.2v0L216.1,158z M216.1,153.2v-0.9h2.8v0.7l-1.9,0v0l1.9,0.5v0.5l-1.9,0.5v0
				l1.9,0v0.6h-2.8v-0.9l1.8-0.5v0L216.1,153.2z M216.1,146.7v-0.9h2.8v0.7l-1.9,0v0l1.9,0.5v0.5L217,148v0l1.9,0v0.6h-2.8v-0.9
				l1.8-0.5v0L216.1,146.7z M218.9,151.2v0.7h-2.8v-0.7H218.9z M218.9,144.9c-0.1,0.1-0.2,0.3-0.3,0.4s-0.3,0.2-0.5,0.2
				c-0.2,0.1-0.4,0.1-0.6,0.1c-0.2,0-0.4,0-0.6-0.1c-0.2-0.1-0.3-0.1-0.5-0.2c-0.1-0.1-0.2-0.2-0.3-0.4c-0.1-0.1-0.1-0.3-0.1-0.5
				c0-0.2,0-0.4,0.1-0.5c0.1-0.1,0.2-0.3,0.3-0.4c0.1-0.1,0.3-0.2,0.5-0.2c0.2-0.1,0.4-0.1,0.6-0.1c0.2,0,0.4,0,0.6,0.1
				c0.2,0.1,0.3,0.1,0.5,0.2s0.2,0.2,0.3,0.4c0.1,0.1,0.1,0.3,0.1,0.5C219,144.5,219,144.7,218.9,144.9z M221.7,161.9
				c-0.8,0-1.4-0.6-1.4-1.4c0-0.8,0.6-1.4,1.4-1.4c0.8,0,1.4,0.6,1.4,1.4C223.1,161.3,222.5,161.9,221.7,161.9z M221.7,154.7
				c-0.8,0-1.4-0.6-1.4-1.4s0.6-1.4,1.4-1.4c0.8,0,1.4,0.6,1.4,1.4C223.1,154.1,222.5,154.7,221.7,154.7z M221.7,147.5
				c-0.8,0-1.4-0.6-1.4-1.4s0.6-1.4,1.4-1.4c0.8,0,1.4,0.6,1.4,1.4C223.1,146.9,222.5,147.5,221.7,147.5z"/>
		</g>
		<path class="st2" d="M218,138.9c0.2,0,0.3,0,0.4,0.1c0.1,0.1,0.2,0.1,0.3,0.2c0.1,0.1,0.2,0.2,0.2,0.3c0,0.1,0.1,0.3,0.1,0.4
			c0,0.3-0.1,0.5-0.2,0.7c-0.1,0.2-0.3,0.3-0.6,0.4l-0.2-0.6c0.1,0,0.2-0.1,0.3-0.1c0.1-0.1,0.1-0.1,0.1-0.3c0-0.1,0-0.1,0-0.2
			c0,0-0.1-0.1-0.1-0.1s-0.1-0.1-0.1-0.1s-0.1,0-0.2,0c-0.1,0-0.2,0-0.3,0.1c-0.1,0.1-0.1,0.2-0.1,0.3v0.2H217v-0.2
			c0-0.1,0-0.2-0.1-0.3c-0.1-0.1-0.2-0.1-0.3-0.1c-0.1,0-0.2,0-0.2,0.1c-0.1,0-0.1,0.1-0.1,0.2c0,0.1,0,0.2,0.1,0.2
			c0.1,0,0.1,0.1,0.2,0.1l-0.2,0.6c-0.1,0-0.3-0.1-0.4-0.2c-0.1-0.1-0.2-0.1-0.2-0.2c-0.1-0.1-0.1-0.2-0.1-0.3c0-0.1,0-0.2,0-0.3
			c0-0.1,0-0.2,0.1-0.3c0-0.1,0.1-0.2,0.2-0.3c0.1-0.1,0.2-0.2,0.3-0.2c0.1-0.1,0.2-0.1,0.4-0.1c0.2,0,0.4,0,0.5,0.1
			c0.1,0.1,0.2,0.2,0.3,0.3h0c0-0.2,0.1-0.3,0.3-0.4C217.6,139,217.8,138.9,218,138.9z"/>
		<path class="st2" d="M218.9,137.3v0.9l-3.3,0.8v-0.8l2.4-0.4v0l-2.4-0.4v-0.8L218.9,137.3z"/>
		<path class="st2" d="M218.9,133.4c0,0.1,0.1,0.3,0.1,0.5c0,0.2,0,0.4-0.1,0.5c-0.1,0.2-0.2,0.3-0.3,0.4c-0.1,0.1-0.3,0.2-0.5,0.3
			c-0.2,0.1-0.4,0.1-0.7,0.1c-0.3,0-0.5,0-0.7-0.1c-0.2-0.1-0.4-0.1-0.5-0.3c-0.2-0.1-0.3-0.2-0.4-0.4c-0.1-0.2-0.1-0.3-0.1-0.5
			c0-0.2,0-0.4,0.1-0.6c0.1-0.1,0.2-0.3,0.3-0.4l0.5,0.4c-0.2,0.1-0.2,0.3-0.2,0.5c0,0.1,0,0.2,0.1,0.3c0.1,0.1,0.1,0.1,0.2,0.2
			c0.1,0,0.2,0.1,0.3,0.1c0.1,0,0.3,0,0.4,0c0.1,0,0.3,0,0.4,0c0.1,0,0.2-0.1,0.3-0.1c0.1,0,0.2-0.1,0.2-0.2
			c0.1-0.1,0.1-0.2,0.1-0.3c0-0.1,0-0.2-0.1-0.3h-0.6v0.3H217v-1h1.7C218.8,133.1,218.9,133.3,218.9,133.4z"/>
		<path class="st2" d="M218.9,131.4l-2,0.8v0l2,0v0.7h-3.3V132l2-0.8v0l-2,0v-0.6h3.3V131.4z"/>
		<path class="st2" d="M217.3,128c0.2,0,0.5,0,0.7,0.1c0.2,0.1,0.4,0.1,0.5,0.2c0.1,0.1,0.2,0.3,0.3,0.4c0.1,0.2,0.1,0.4,0.1,0.6
			v0.9h-3.3v-0.9c0-0.2,0-0.4,0.1-0.6c0.1-0.2,0.2-0.3,0.3-0.4c0.1-0.1,0.3-0.2,0.5-0.2C216.8,128,217,128,217.3,128z M217.3,128.7
			c-0.3,0-0.6,0.1-0.7,0.2c-0.2,0.1-0.2,0.3-0.2,0.4v0.2h2v-0.2c0-0.2-0.1-0.3-0.3-0.4C217.9,128.8,217.6,128.7,217.3,128.7z"/>
		<path class="st2" d="M217.8,124.5c0.2,0,0.4,0,0.5,0.1c0.1,0.1,0.3,0.1,0.4,0.2c0.1,0.1,0.2,0.2,0.2,0.3c0,0.1,0.1,0.3,0.1,0.4
			c0,0.2-0.1,0.5-0.2,0.6c-0.1,0.2-0.3,0.3-0.6,0.4l-0.2-0.6c0.1,0,0.2-0.1,0.3-0.1c0.1-0.1,0.1-0.1,0.1-0.2c0-0.1,0-0.2-0.1-0.3
			c-0.1-0.1-0.2-0.1-0.3-0.1c-0.2,0-0.3,0-0.4,0.1c-0.1,0.1-0.1,0.2-0.1,0.3c0,0.1,0,0.2,0,0.3c0,0.1,0.1,0.2,0.1,0.3l-1.8-0.1v-1.7
			h0.6v1l0.6,0c0,0,0-0.1,0-0.1c0,0,0-0.1,0-0.1c0-0.1,0-0.3,0.1-0.4c0-0.1,0.1-0.2,0.2-0.3c0.1-0.1,0.2-0.1,0.3-0.2
			C217.5,124.5,217.7,124.5,217.8,124.5z"/>
		<path class="st2" d="M218.9,122.8v0.9l-3.3,0.8v-0.8l2.4-0.4v0l-2.4-0.4V122L218.9,122.8z"/>
		<path class="st2" d="M181.2,124l0.6-0.1v-0.7l-0.6-0.1v-0.7l3.3,0.8v0.9l-3.3,0.8C181.2,124.7,181.2,124,181.2,124z M183.8,123.5
			L183.8,123.5l-1.4-0.3v0.6L183.8,123.5z"/>
		<path class="st2" d="M182.8,126.8c-0.2,0-0.4,0-0.6,0c-0.2,0-0.4-0.1-0.5-0.2c-0.2-0.1-0.3-0.2-0.4-0.3c-0.1-0.1-0.2-0.3-0.2-0.5
			c0-0.2,0.1-0.4,0.2-0.5c0.1-0.1,0.2-0.2,0.4-0.3c0.2-0.1,0.4-0.1,0.5-0.2c0.2,0,0.4,0,0.6,0s0.4,0,0.6,0c0.2,0,0.4,0.1,0.5,0.2
			c0.2,0.1,0.3,0.2,0.4,0.3c0.1,0.1,0.2,0.3,0.2,0.5c0,0.2-0.1,0.4-0.2,0.5c-0.1,0.1-0.2,0.2-0.4,0.3c-0.2,0.1-0.4,0.1-0.5,0.2
			C183.2,126.8,183,126.8,182.8,126.8z M182.8,126c0.1,0,0.2,0,0.3,0c0.1,0,0.2,0,0.3,0c0.1,0,0.2-0.1,0.3-0.1s0.1-0.1,0.1-0.2
			c0-0.1,0-0.1-0.1-0.2s-0.2-0.1-0.3-0.1c-0.1,0-0.2,0-0.3,0c-0.1,0-0.2,0-0.3,0c-0.1,0-0.2,0-0.3,0c-0.1,0-0.2,0-0.3,0
			c-0.1,0-0.2,0.1-0.3,0.1s-0.1,0.1-0.1,0.2c0,0.1,0,0.1,0.1,0.2s0.2,0.1,0.3,0.1c0.1,0,0.2,0,0.3,0C182.6,126,182.7,126,182.8,126z
			"/>
		<path class="st2" d="M181.2,131.4l0.6-0.1v-0.7l-0.6-0.1v-0.7l3.3,0.8v0.9l-3.3,0.8C181.2,132.2,181.2,131.4,181.2,131.4z
			 M183.8,130.9L183.8,130.9l-1.4-0.3v0.6L183.8,130.9z"/>
		<path class="st2" d="M181.2,132.8h2.4l-0.4-0.5l0.6-0.3l0.7,0.9v0.6h-3.3V132.8z"/>
		<path class="st2" d="M181.2,138.2l0.6-0.1v-0.7l-0.6-0.1v-0.7l3.3,0.8v0.9l-3.3,0.8C181.2,139,181.2,138.2,181.2,138.2z
			 M183.8,137.8L183.8,137.8l-1.4-0.3v0.6L183.8,137.8z"/>
		<path class="st2" d="M183.6,141c-0.1,0-0.2,0-0.3,0c-0.1,0-0.2-0.1-0.3-0.1c-0.1,0-0.2-0.1-0.2-0.2c-0.1-0.1-0.2-0.1-0.2-0.2
			l-0.7-0.6v1.1h-0.6v-1.9h0.7l1.1,1c0.1,0.1,0.2,0.1,0.3,0.2c0.1,0,0.2,0.1,0.3,0.1c0.1,0,0.2,0,0.2-0.1c0.1,0,0.1-0.1,0.1-0.2
			c0-0.1,0-0.2-0.1-0.2c-0.1-0.1-0.2-0.1-0.3-0.1l0.1-0.7c0.3,0,0.6,0.1,0.7,0.3c0.2,0.2,0.2,0.4,0.2,0.7c0,0.2,0,0.3-0.1,0.4
			c0,0.1-0.1,0.2-0.2,0.3c-0.1,0.1-0.2,0.1-0.3,0.2C183.9,141,183.7,141,183.6,141z"/>
		<path class="st2" d="M181.2,145.5l0.5-0.1v-0.7l-0.5-0.1v-0.7l2.8,0.8v0.9l-2.8,0.8C181.2,146.3,181.2,145.5,181.2,145.5z
			 M183.4,145.1L183.4,145.1l-1.2-0.3v0.5L183.4,145.1z"/>
		<path class="st2" d="M182,148.2c-0.1,0-0.3,0-0.4-0.1c-0.1-0.1-0.2-0.1-0.3-0.2c-0.1-0.1-0.1-0.2-0.2-0.3c0-0.1-0.1-0.2-0.1-0.4
			c0-0.3,0.1-0.5,0.2-0.7c0.1-0.2,0.3-0.3,0.5-0.4l0.1,0.6c-0.1,0-0.2,0.1-0.2,0.1c-0.1,0.1-0.1,0.1-0.1,0.2c0,0.1,0,0.1,0,0.1
			s0,0.1,0.1,0.1c0,0,0.1,0,0.1,0.1c0,0,0.1,0,0.1,0c0.1,0,0.2,0,0.3-0.1c0.1-0.1,0.1-0.2,0.1-0.3v-0.2h0.5v0.2c0,0.1,0,0.2,0.1,0.3
			c0.1,0.1,0.1,0.1,0.3,0.1c0.1,0,0.1,0,0.2-0.1c0.1,0,0.1-0.1,0.1-0.2c0-0.1,0-0.2-0.1-0.2c-0.1,0-0.1-0.1-0.2-0.1l0.1-0.6
			c0.1,0,0.2,0.1,0.3,0.2c0.1,0.1,0.2,0.1,0.2,0.2c0.1,0.1,0.1,0.2,0.1,0.3c0,0.1,0,0.2,0,0.3c0,0.1,0,0.2,0,0.3
			c0,0.1-0.1,0.2-0.1,0.3c-0.1,0.1-0.1,0.2-0.2,0.2c-0.1,0.1-0.2,0.1-0.3,0.1c-0.2,0-0.3,0-0.4-0.1c-0.1-0.1-0.2-0.2-0.2-0.3h0
			c0,0.1-0.1,0.3-0.2,0.4C182.3,148.2,182.2,148.2,182,148.2z"/>
		<g>
			<polygon class="st2" points="183.4,155.4 182.2,155.2 182.2,155.7 183.4,155.5 			"/>
			<path class="st2" d="M182.6,153.7c0.3,0,0.5-0.1,0.6-0.2c0.1-0.1,0.2-0.2,0.2-0.4V153h-1.7v0.2c0,0.2,0.1,0.3,0.2,0.4
				C182.1,153.7,182.4,153.7,182.6,153.7z"/>
			<path class="st2" d="M183.7,149.7h-8.8v2.2c0.8,0,1.4,0.6,1.4,1.4c0,0.8-0.6,1.4-1.4,1.4v4.4c0.8,0,1.4,0.6,1.4,1.4
				c0,0.8-0.6,1.4-1.4,1.4v2.2h8.8c0.5,0,0.9-0.4,0.9-0.9v-12.7C184.5,150.1,184.2,149.7,183.7,149.7z M178.5,161.9
				c-0.8,0-1.4-0.6-1.4-1.4c0-0.8,0.6-1.4,1.4-1.4c0.8,0,1.4,0.6,1.4,1.4C179.9,161.3,179.3,161.9,178.5,161.9z M178.5,154.7
				c-0.8,0-1.4-0.6-1.4-1.4s0.6-1.4,1.4-1.4c0.8,0,1.4,0.6,1.4,1.4C179.9,154.1,179.3,154.7,178.5,154.7z M184.1,162.6h-2.2v0.8
				h-0.6v-1.5h2.8V162.6z M184,161.5c-0.1,0.1-0.2,0.3-0.3,0.3l-0.5-0.4c0.1-0.1,0.1-0.1,0.2-0.2c0-0.1,0.1-0.1,0.1-0.2
				c0-0.1,0-0.2-0.1-0.2c0-0.1-0.1-0.1-0.2-0.2c-0.1,0-0.2-0.1-0.3-0.1c-0.1,0-0.2,0-0.3,0s-0.2,0-0.3,0c-0.1,0-0.2,0.1-0.3,0.1
				c-0.1,0-0.1,0.1-0.2,0.2c0,0.1-0.1,0.2-0.1,0.2s0,0.2,0.1,0.2c0,0.1,0.1,0.1,0.2,0.2l-0.4,0.4c-0.1-0.1-0.2-0.2-0.3-0.3
				c-0.1-0.1-0.1-0.3-0.1-0.5c0-0.2,0-0.3,0.1-0.5c0.1-0.1,0.2-0.3,0.3-0.4c0.1-0.1,0.3-0.2,0.5-0.2c0.2-0.1,0.4-0.1,0.6-0.1
				c0.2,0,0.4,0,0.6,0.1c0.2,0.1,0.3,0.1,0.5,0.2c0.1,0.1,0.2,0.2,0.3,0.4c0.1,0.1,0.1,0.3,0.1,0.5
				C184.1,161.1,184.1,161.3,184,161.5z M184.1,159.3c-0.1,0.1-0.1,0.2-0.2,0.3l-0.5-0.4c0.1-0.1,0.1-0.1,0.1-0.2c0-0.1,0-0.1,0-0.2
				c0-0.1,0-0.1-0.1-0.2c0-0.1-0.1-0.1-0.2-0.1c-0.1,0-0.2,0-0.2,0.1s-0.1,0.2-0.2,0.3c0,0.1-0.1,0.1-0.1,0.2c0,0.1-0.1,0.2-0.2,0.2
				c-0.1,0.1-0.1,0.1-0.2,0.2c-0.1,0-0.2,0.1-0.3,0.1c-0.2,0-0.3,0-0.4-0.1c-0.1-0.1-0.2-0.1-0.3-0.2c-0.1-0.1-0.1-0.2-0.2-0.3
				c0-0.1-0.1-0.2-0.1-0.4c0-0.2,0-0.4,0.1-0.5c0.1-0.2,0.1-0.3,0.2-0.4l0.5,0.4c-0.1,0.1-0.1,0.1-0.2,0.2c0,0.1-0.1,0.2-0.1,0.3
				c0,0.1,0,0.2,0.1,0.2c0.1,0.1,0.1,0.1,0.2,0.1c0.1,0,0.2,0,0.2-0.1c0.1-0.1,0.1-0.2,0.2-0.3c0-0.1,0.1-0.2,0.1-0.2
				c0-0.1,0.1-0.1,0.2-0.2c0.1-0.1,0.1-0.1,0.2-0.1c0.1,0,0.2,0,0.3,0c0.2,0,0.3,0,0.4,0.1c0.1,0.1,0.2,0.1,0.3,0.2
				c0.1,0.1,0.1,0.2,0.2,0.3c0,0.1,0.1,0.2,0.1,0.3C184.1,159.1,184.1,159.2,184.1,159.3z M181.2,155v-0.7l2.8,0.8v0.9l-2.8,0.8
				v-0.7l0.5-0.1v-0.7L181.2,155z M181.2,153.2v-0.9h2.8v0.9c0,0.2,0,0.4-0.1,0.6c-0.1,0.2-0.2,0.3-0.3,0.4
				c-0.1,0.1-0.3,0.2-0.4,0.2c-0.2,0.1-0.4,0.1-0.6,0.1c-0.2,0-0.4,0-0.6-0.1c-0.2-0.1-0.3-0.1-0.4-0.2c-0.1-0.1-0.2-0.2-0.3-0.4
				C181.3,153.6,181.2,153.4,181.2,153.2z M184.1,151.8c-0.1,0.1-0.1,0.2-0.2,0.3l-0.5-0.4c0.1-0.1,0.1-0.1,0.1-0.2
				c0-0.1,0-0.1,0-0.2c0-0.1,0-0.1-0.1-0.2c0-0.1-0.1-0.1-0.2-0.1c-0.1,0-0.2,0-0.2,0.1s-0.1,0.2-0.2,0.3c0,0.1-0.1,0.1-0.1,0.2
				c0,0.1-0.1,0.2-0.2,0.2c-0.1,0.1-0.1,0.1-0.2,0.2c-0.1,0-0.2,0.1-0.3,0.1c-0.2,0-0.3,0-0.4-0.1c-0.1-0.1-0.2-0.1-0.3-0.2
				c-0.1-0.1-0.1-0.2-0.2-0.3c0-0.1-0.1-0.2-0.1-0.4c0-0.2,0-0.4,0.1-0.5c0.1-0.2,0.1-0.3,0.2-0.4l0.5,0.4c-0.1,0.1-0.1,0.1-0.2,0.2
				c0,0.1-0.1,0.2-0.1,0.3c0,0.1,0,0.2,0.1,0.2c0.1,0.1,0.1,0.1,0.2,0.1c0.1,0,0.2,0,0.2-0.1c0.1-0.1,0.1-0.2,0.2-0.3
				c0-0.1,0.1-0.2,0.1-0.2s0.1-0.1,0.2-0.2c0.1-0.1,0.1-0.1,0.2-0.1s0.2,0,0.3,0c0.2,0,0.3,0,0.4,0.1c0.1,0.1,0.2,0.1,0.3,0.2
				c0.1,0.1,0.1,0.2,0.2,0.3c0,0.1,0.1,0.2,0.1,0.3C184.1,151.5,184.1,151.6,184.1,151.8z"/>
		</g>
		<path class="st2" d="M183.9,166.8h-2.6v-0.7h2.6v-0.6h0.6v1.9h-0.6V166.8z"/>
		<path class="st2" d="M181.3,169l1.1-0.5l-1.1-0.4v-0.8l1.7,0.8l1.6-0.7v0.8l-1,0.4l1,0.4v0.8L183,169l-1.7,0.8V169z"/>
		<g>
			<g>
				<g>
					<line class="st32" x1="211.1" y1="141.6" x2="214" y2="141.6"/>
				</g>
			</g>
			<g>
				<g>
					<line class="st32" x1="199.6" y1="154" x2="199.6" y2="156.9"/>
				</g>
			</g>
			<g>
				<g>
					<line class="st33" x1="206.7" y1="150.4" x2="208.2" y2="150.4"/>
				</g>
			</g>
			<g>
				<g>
					<line class="st34" x1="186.2" y1="169.8" x2="186.2" y2="162.4"/>
					<line class="st34" x1="186.2" y1="162.4" x2="189.4" y2="162.4"/>
					<line class="st34" x1="200.1" y1="162.4" x2="203.5" y2="162.4"/>
					<line class="st34" x1="203.5" y1="162.4" x2="203.5" y2="169.8"/>
					<line class="st34" x1="188.8" y1="174.6" x2="200.7" y2="174.6"/>
				</g>
			</g>
			<g>
				<g>
					<line class="st33" x1="206.1" y1="144.6" x2="206.1" y2="138.9"/>
					<line class="st33" x1="210.1" y1="138.9" x2="210.1" y2="144.6"/>
					<line class="st33" x1="208.1" y1="142.5" x2="207" y2="140.8"/>
					<line class="st33" x1="207" y1="140.8" x2="209.2" y2="140.8"/>
					<line class="st33" x1="209.2" y1="140.8" x2="208.1" y2="142.5"/>
					<g>
						<path class="st33" d="M208.1,142l-0.6-0.9h1.1L208.1,142"/>
					</g>
				</g>
			</g>
			<g>
				<g>
					<line class="st34" x1="210.2" y1="159.6" x2="210.2" y2="155"/>
					<line class="st34" x1="212.7" y1="155.3" x2="212.7" y2="156.9"/>
					<line class="st34" x1="215.3" y1="159.6" x2="215.3" y2="155"/>
				</g>
			</g>
			<g>
				<g>
					<line class="st33" x1="208.2" y1="156.4" x2="206.7" y2="156.4"/>
				</g>
			</g>
			<g>
				<g>
					<line class="st33" x1="190.6" y1="138.1" x2="190.6" y2="139.6"/>
				</g>
			</g>
			<g>
				<g>
					<line class="st33" x1="203.7" y1="139.7" x2="205.2" y2="139.7"/>
				</g>
			</g>
			<g>
				<g>
					<line class="st33" x1="202" y1="139.7" x2="200.5" y2="139.7"/>
				</g>
			</g>
			<g>
				<g>
					<line class="st33" x1="196.2" y1="140.1" x2="194.8" y2="140.1"/>
				</g>
			</g>
			<g>
				<g>
					<line class="st33" x1="206" y1="173.5" x2="206" y2="161.6"/>
					<line class="st33" x1="214.7" y1="161.6" x2="214.7" y2="173.5"/>
				</g>
			</g>
			<g>
				<g>
					<line class="st33" x1="185.2" y1="154.8" x2="185.2" y2="142.9"/>
					<line class="st33" x1="193.8" y1="142.9" x2="193.8" y2="154.8"/>
				</g>
			</g>
			<g>
				<g>
					<line class="st33" x1="197.7" y1="152.7" x2="202.2" y2="152.7"/>
					<line class="st33" x1="197.7" y1="143.3" x2="202.2" y2="143.3"/>
					<line class="st33" x1="197" y1="149.1" x2="197" y2="146.9"/>
				</g>
			</g>
			<g>
				<g>
					<line class="st35" x1="212.8" y1="125.2" x2="212.8" y2="129"/>
					<line class="st35" x1="187.4" y1="129" x2="187.4" y2="125.2"/>
					<line class="st35" x1="187.4" y1="113.9" x2="212.8" y2="113.9"/>
					<line class="st35" x1="212.8" y1="113.9" x2="212.8" y2="117.7"/>
					<line class="st35" x1="187.4" y1="117.7" x2="187.4" y2="113.9"/>
				</g>
			</g>
		</g>
		<g transform="matrix(0, -1, 1, 0, 9.04306, 69.8689)">
			<g>
				<g transform="matrix(-2.535182e-06 -1 1 -2.535182e-06 10.2359 68.0159)">
					<rect id="connector5pin" x="-137.6" y="-86.4" class="st36" width="4.3" height="3.5"/>
				</g>
			</g>
		</g>
		<g transform="matrix(0, -1, 1, 0, 14.4289, 64.4831)">
			<g>
				<g transform="matrix(-2.535182e-06 -1 1 -2.535182e-06 15.6217 62.6301)">
					<rect id="connector6pin" x="-137.6" y="-91.8" class="st36" width="4.3" height="3.5"/>
				</g>
			</g>
		</g>
		<rect id="connector7pin" x="195.1" y="153.3" class="st36" width="3.5" height="4.3"/>
		<rect id="connector8pin" x="200.5" y="153.3" class="st36" width="3.5" height="4.3"/>
		<g transform="matrix(0, -1, 1, 0, -3.636, 72.396)">
			<g>
				<g transform="matrix(-2.535182e-06 -1 1 -2.535182e-06 -2.4433 70.5429)">
					<rect id="connector9pin" x="-141.4" y="-77.9" class="st36" width="1.7" height="1.7"/>
				</g>
			</g>
		</g>
		<g transform="matrix(0, -1, 1, 0, -0.756, 69.516)">
			<g>
				<g transform="matrix(-2.535182e-06 -1 1 -2.535182e-06 0.4367 67.6629)">
					<rect id="connector10pin" x="-141.4" y="-80.8" class="st36" width="1.7" height="1.7"/>
				</g>
			</g>
		</g>
		<g transform="matrix(0, -1, 1, 0, -30.2817, 65.1218)">
			<g>
				<g transform="matrix(-2.535182e-06 -1 1 -2.535182e-06 -29.089 63.2687)">
					<rect x="-158.2" y="-69.5" class="st36" width="1.4" height="4.4"/>
				</g>
			</g>
		</g>
		<g transform="matrix(0, -1, 1, 0, -27.447, 67.9564)">
			<g>
				<g transform="matrix(-2.535182e-06 -1 1 -2.535182e-06 -26.2544 66.1033)">
					<rect x="-155.4" y="-69.5" class="st36" width="1.4" height="4.4"/>
				</g>
			</g>
		</g>
		<g transform="matrix(0, -1, 1, 0, -24.6124, 70.791)">
			<g>
				<g transform="matrix(-2.535182e-06 -1 1 -2.535182e-06 -23.4197 68.938)">
					<rect x="-152.6" y="-69.5" class="st36" width="1.4" height="4.4"/>
				</g>
			</g>
		</g>
		<g transform="matrix(0, -1, 1, 0, -21.7778, 73.6258)">
			<g>
				<g transform="matrix(-2.535182e-06 -1 1 -2.535182e-06 -20.585 71.7726)">
					<rect x="-149.7" y="-69.5" class="st36" width="1.4" height="4.4"/>
				</g>
			</g>
		</g>
		<g transform="matrix(0, -1, 1, 0, -45.0218, 72.4918)">
			<g>
				<g transform="matrix(-2.535182e-06 -1 1 -2.535182e-06 -43.8292 70.6388)">
					<rect id="connector15pin" x="-162.9" y="-58.8" class="st36" width="3.4" height="5.1"/>
				</g>
			</g>
		</g>
		<g transform="matrix(0, -1, 1, 0, -29.1478, 88.3656)">
			<g>
				<g transform="matrix(-2.535182e-06 -1 1 -2.535182e-06 -27.9551 86.5128)">
					<rect id="connector16pin" x="-147" y="-58.8" class="st36" width="3.4" height="5.1"/>
				</g>
			</g>
		</g>
		<g transform="matrix(0, -1, 1, 0, 10.1611, 59.8949)">
			<g>
				<g transform="matrix(-2.535182e-06 -1 1 -2.535182e-06 11.3537 58.0419)">
					<rect id="connector17pin" x="-141" y="-91.5" class="st36" width="2.3" height="2.6"/>
				</g>
			</g>
		</g>
		<g transform="matrix(0, -1, 1, 0, 4.09493, 65.9611)">
			<g>
				<g transform="matrix(-2.535182e-06 -1 1 -2.535182e-06 5.2876 64.108)">
					<rect id="connector18pin" x="-141" y="-85.4" class="st36" width="2.3" height="2.6"/>
				</g>
			</g>
		</g>
		<circle id="connector19pin" class="st37" cx="178.5" cy="124.5" r="2"/>
		<circle id="connector21pin" class="st37" cx="178.5" cy="131.7" r="2"/>
		<circle id="connector23pin" class="st37" cx="178.5" cy="138.9" r="2"/>
		<circle id="connector25pin" class="st37" cx="178.5" cy="146.1" r="2"/>
		<circle id="connector27pin" class="st37" cx="178.5" cy="153.3" r="2"/>
		<circle id="connector29pin" class="st37" cx="178.5" cy="160.5" r="2"/>
		<circle id="connector31pin" class="st37" cx="178.5" cy="167.7" r="2"/>
		<circle id="connector33pin" class="st37" cx="221.7" cy="167.7" r="2"/>
		<circle id="connector35pin" class="st37" cx="221.7" cy="160.5" r="2"/>
		<circle id="connector37pin" class="st37" cx="221.7" cy="153.3" r="2"/>
		<circle id="connector39pin" class="st37" cx="221.7" cy="146.1" r="2"/>
		<circle id="connector41pin" class="st37" cx="221.7" cy="138.9" r="2"/>
		<circle id="connector43pin" class="st37" cx="221.7" cy="131.7" r="2"/>
		<circle id="connector45pin" class="st37" cx="221.7" cy="124.5" r="2"/>
		<g transform="matrix(0, -1, 1, 0, -3.95773, 85.7808)">
			<g>
				<g transform="matrix(-2.535182e-06 -1 1 -2.535182e-06 -2.7651 83.9279)">
					<rect id="connector47pin" x="-134.7" y="-70.9" class="st36" width="1.4" height="1.4"/>
				</g>
			</g>
		</g>
		<g transform="matrix(0, -1, 1, 0, -1.12308, 82.9462)">
			<g>
				<g transform="matrix(-2.535182e-06 -1 1 -2.535182e-06 0.0696 81.0932)">
					<rect id="connector48pin" x="-134.7" y="-73.7" class="st36" width="1.4" height="1.4"/>
				</g>
			</g>
		</g>
		<g transform="matrix(0, -1, 1, 0, -3.67427, 80.3952)">
			<g>
				<g transform="matrix(-2.535182e-06 -1 1 -2.535182e-06 -2.4815 78.5421)">
					<rect id="connector49pin" x="-137.3" y="-73.7" class="st36" width="1.4" height="1.4"/>
				</g>
			</g>
		</g>
		<g transform="matrix(0, -1, 1, 0, -6.50892, 83.2298)">
			<g>
				<g transform="matrix(-2.535182e-06 -1 1 -2.535182e-06 -5.3162 81.3768)">
					<rect id="connector50pin" x="-137.3" y="-70.9" class="st36" width="1.4" height="1.4"/>
				</g>
			</g>
		</g>
		<g transform="matrix(0, 1, -1, 0, 75.528, 6.768)">
			<g>
				<g transform="matrix(2.535182e-06 1 -1 2.535182e-06 77.381 7.9605)">
					<rect id="connector51pin" x="-140.7" y="-71.7" class="st36" width="1.7" height="1.7"/>
				</g>
			</g>
		</g>
		<g transform="matrix(0, 1, -1, 0, 78.408, 9.648)">
			<g>
				<g transform="matrix(2.535182e-06 1 -1 2.535182e-06 80.261 10.8405)">
					<rect id="connector52pin" x="-140.7" y="-68.8" class="st36" width="1.7" height="1.7"/>
				</g>
			</g>
		</g>
		<rect id="connector53pin" x="188.3" y="138" class="st36" width="1.7" height="1.7"/>
		<rect id="connector54pin" x="191.2" y="138" class="st36" width="1.7" height="1.7"/>
		<g transform="matrix(0, -1, 1, 0, 4.068, 58.644)">
			<g>
				<g transform="matrix(-2.535182e-06 -1 1 -2.535182e-06 5.2607 56.7909)">
					<rect id="connector55pin" x="-144.4" y="-88.6" class="st36" width="1.7" height="1.7"/>
				</g>
			</g>
		</g>
		<g transform="matrix(0, -1, 1, 0, 6.948, 55.764)">
			<g>
				<g transform="matrix(-2.535182e-06 -1 1 -2.535182e-06 8.1407 53.9109)">
					<rect id="connector56pin" x="-144.4" y="-91.5" class="st36" width="1.7" height="1.7"/>
				</g>
			</g>
		</g>
		<g transform="matrix(0, 1, -1, 0, 52.596, -3.78)">
			<g>
				<g transform="matrix(2.535182e-06 1 -1 2.535182e-06 54.4491 -2.5875)">
					<rect id="connector57pin" x="-146.9" y="-88.4" class="st36" width="1.7" height="1.7"/>
				</g>
			</g>
		</g>
		<g transform="matrix(0, 1, -1, 0, 55.476, -0.9)">
			<g>
				<g transform="matrix(2.535182e-06 1 -1 2.535182e-06 57.3291 0.2925)">
					<rect id="connector58pin" x="-146.9" y="-85.6" class="st36" width="1.7" height="1.7"/>
				</g>
			</g>
		</g>
		<g transform="matrix(0, 1, -1, 0, 47.196, 2.34)">
			<g>
				<g transform="matrix(2.535182e-06 1 -1 2.535182e-06 49.0491 3.5325)">
					<rect id="connector59pin" x="-152.7" y="-88.1" class="st36" width="1.7" height="1.7"/>
				</g>
			</g>
		</g>
		<g transform="matrix(0, 1, -1, 0, 50.076, 5.22)">
			<g>
				<g transform="matrix(2.535182e-06 1 -1 2.535182e-06 51.9291 6.4125)">
					<rect id="connector60pin" x="-152.7" y="-85.2" class="st36" width="1.7" height="1.7"/>
				</g>
			</g>
		</g>
		<g transform="matrix(0, -1, 1, 0, -12.8727, 82.8576)">
			<g>
				<g transform="matrix(-2.535182e-06 -1 1 -2.535182e-06 -11.68 81.0042)">
					<rect id="connector61pin" x="-141.2" y="-68.5" class="st36" width="2.6" height="2.6"/>
				</g>
			</g>
		</g>
		<g transform="matrix(0, -1, 1, 0, -24.4948, 94.4791)">
			<g>
				<g transform="matrix(-2.535182e-06 -1 1 -2.535182e-06 -23.302 92.6263)">
					<rect id="connector62pin" x="-141.2" y="-56.8" class="st36" width="2.6" height="2.6"/>
				</g>
			</g>
		</g>
		<g transform="matrix(0, -1, 1, 0, -8.33724, 87.3929)">
			<g>
				<g transform="matrix(-2.535182e-06 -1 1 -2.535182e-06 -7.1445 85.5397)">
					<rect id="connector63pin" x="-136.7" y="-68.5" class="st36" width="2.6" height="2.6"/>
				</g>
			</g>
		</g>
		<g transform="matrix(0, -1, 1, 0, -19.9593, 99.0144)">
			<g>
				<g transform="matrix(-2.535182e-06 -1 1 -2.535182e-06 -18.7665 97.1618)">
					<rect id="connector64pin" x="-136.7" y="-56.8" class="st36" width="2.6" height="2.6"/>
				</g>
			</g>
		</g>
		<g transform="matrix(0, -1, 1, 0, -14.9967, 43.2932)">
			<g>
				<g transform="matrix(-2.535182e-06 -1 1 -2.535182e-06 -13.8041 41.4402)">
					<rect id="connector65pin" x="-162.1" y="-87.2" class="st36" width="2.6" height="2.6"/>
				</g>
			</g>
		</g>
		<g transform="matrix(0, -1, 1, 0, -26.6188, 54.9153)">
			<g>
				<g transform="matrix(-2.535182e-06 -1 1 -2.535182e-06 -25.4261 53.0622)">
					<rect id="connector66pin" x="-162.1" y="-75.6" class="st36" width="2.6" height="2.6"/>
				</g>
			</g>
		</g>
		<g transform="matrix(0, -1, 1, 0, -10.4612, 47.8287)">
			<g>
				<g transform="matrix(-2.535182e-06 -1 1 -2.535182e-06 -9.2686 45.9757)">
					<rect id="connector67pin" x="-157.5" y="-87.2" class="st36" width="2.6" height="2.6"/>
				</g>
			</g>
		</g>
		<g transform="matrix(0, -1, 1, 0, -22.0833, 59.4508)">
			<g>
				<g transform="matrix(-2.535182e-06 -1 1 -2.535182e-06 -20.8906 57.5977)">
					<rect id="connector68pin" x="-157.5" y="-75.6" class="st36" width="2.6" height="2.6"/>
				</g>
			</g>
		</g>
		<path id="connector69pin" class="st36" d="M200.1,123.6L200.1,123.6c0.8,0,1.4,0.6,1.4,1.4l0,0c0,0.8-0.6,1.4-1.4,1.4l0,0
			c-0.8,0-1.4-0.6-1.4-1.4l0,0C198.7,124.3,199.3,123.6,200.1,123.6z"/>
		<g transform="matrix(0, -1, 1, 0, -6.31559, 67.3983)">
			<g>
				<g transform="matrix(-2.535182e-06 -1 1 -2.535182e-06 -5.123 65.5453)">
					<rect id="connector70pin" x="-146.1" y="-79" class="st36" width="3.4" height="1.6"/>
				</g>
			</g>
		</g>
		<g transform="matrix(0, -1, 1, 0, -3.62268, 64.7053)">
			<g>
				<g transform="matrix(-2.535182e-06 -1 1 -2.535182e-06 -2.43 62.8522)">
					<rect id="connector71pin" x="-146.1" y="-81.7" class="st36" width="3.4" height="1.6"/>
				</g>
			</g>
		</g>
		<g transform="matrix(0, -1, 1, 0, -0.929765, 62.0124)">
			<g>
				<g transform="matrix(-2.535182e-06 -1 1 -2.535182e-06 0.2629 60.1593)">
					<rect id="connector72pin" x="-146.1" y="-84.4" class="st36" width="3.4" height="1.6"/>
				</g>
			</g>
		</g>
		<g transform="matrix(0, -1, 1, 0, -8.30038, 54.6417)">
			<g>
				<g transform="matrix(-2.535182e-06 -1 1 -2.535182e-06 -7.1078 52.7886)">
					<rect id="connector73pin" x="-153.5" y="-84.4" class="st36" width="3.4" height="1.6"/>
				</g>
			</g>
		</g>
		<g transform="matrix(0, -1, 1, 0, -13.6863, 60.0276)">
			<g>
				<g transform="matrix(-2.535182e-06 -1 1 -2.535182e-06 -12.4937 58.1746)">
					<rect id="connector74pin" x="-153.5" y="-79" class="st36" width="3.4" height="1.6"/>
				</g>
			</g>
		</g>
		<g transform="matrix(-1, 0, 0, -1, 72.1418, 41.6976)">
			<g>
				<rect id="connector75pin" x="-137.8" y="-94.6" class="st36" width="1.6" height="3.3"/>
			</g>
		</g>
		<g transform="matrix(-1, 0, 0, -1, 67.6063, 41.6976)">
			<g>
				<rect id="connector76pin" x="-140.1" y="-94.6" class="st36" width="1.6" height="3.3"/>
			</g>
		</g>
		<g transform="matrix(-1, 0, 0, -1, 61.0866, 41.6976)">
			<g>
				<rect id="connector77pin" x="-142.9" y="-94.6" class="st36" width="0.8" height="3.3"/>
			</g>
		</g>
		<g transform="matrix(-1, 0, 0, -1, 55.4173, 41.6976)">
			<g>
				<rect id="connector78pin" x="-145.8" y="-94.6" class="st36" width="0.8" height="3.3"/>
			</g>
		</g>
		<g transform="matrix(-1, 0, 0, -1, 52.5827, 41.6976)">
			<g>
				<rect id="connector79pin" x="-147.2" y="-94.6" class="st36" width="0.8" height="3.3"/>
			</g>
		</g>
		<g transform="matrix(-1, 0, 0, -1, 46.9134, 41.6976)">
			<g>
				<rect id="connector80pin" x="-150" y="-94.6" class="st36" width="0.8" height="3.3"/>
			</g>
		</g>
		<g transform="matrix(-1, 0, 0, -1, 35.8582, 41.6976)">
			<g>
				<rect id="connector81pin" x="-156" y="-94.6" class="st36" width="1.6" height="3.3"/>
			</g>
		</g>
		<g transform="matrix(-1, 0, 0, -1, 40.3937, 41.6976)">
			<g>
				<rect id="connector82pin" x="-153.7" y="-94.6" class="st36" width="1.6" height="3.3"/>
			</g>
		</g>
		<g transform="matrix(-1, 0, 0, -1, 44.0788, 41.6976)">
			<g>
				<rect id="connector83pin" x="-151.4" y="-94.6" class="st36" width="0.8" height="3.3"/>
			</g>
		</g>
		<g transform="matrix(-1, 0, 0, -1, 49.748, 41.6976)">
			<g>
				<rect id="connector84pin" x="-148.6" y="-94.6" class="st36" width="0.8" height="3.3"/>
			</g>
		</g>
		<g transform="matrix(-1, 0, 0, -1, 58.252, 41.6976)">
			<g>
				<rect id="connector85pin" x="-144.3" y="-94.6" class="st36" width="0.8" height="3.3"/>
			</g>
		</g>
		<g transform="matrix(-1, 0, 0, -1, 63.9212, 41.6976)">
			<g>
				<rect id="connector86pin" x="-141.5" y="-94.6" class="st36" width="0.8" height="3.3"/>
			</g>
		</g>
		<circle id="connector87pin" class="st38" cx="212.3" cy="133.1" r="1.2"/>
		<path class="st36" d="M211.1,130.3h2.4v5.6h-2.4V130.3 M211.1,133.1c0,0.7,0.5,1.2,1.2,1.2c0.7,0,1.2-0.5,1.2-1.2
			s-0.5-1.2-1.2-1.2C211.7,131.9,211.1,132.4,211.1,133.1L211.1,133.1z"/>
		<circle id="connector88pin" class="st38" cx="187.8" cy="133.1" r="1.2"/>
		<path class="st36" d="M186.6,130.3h2.4v5.6h-2.4V130.3 M186.6,133.1c0,0.7,0.5,1.2,1.2,1.2s1.2-0.5,1.2-1.2s-0.5-1.2-1.2-1.2
			S186.6,132.4,186.6,133.1L186.6,133.1z"/>
		<circle id="connector89pin" class="st38" cx="212.3" cy="121.2" r="1.2"/>
		<path class="st36" d="M211.1,118.4h2.4v5.6h-2.4V118.4 M211.1,121.2c0,0.7,0.5,1.2,1.2,1.2c0.7,0,1.2-0.5,1.2-1.2
			s-0.5-1.2-1.2-1.2C211.7,120,211.1,120.6,211.1,121.2z"/>
		<circle id="connector90pin" class="st38" cx="187.8" cy="121.2" r="1.2"/>
		<path class="st36" d="M186.6,118.4h2.4v5.6h-2.4V118.4 M186.6,121.2c0,0.7,0.5,1.2,1.2,1.2s1.2-0.5,1.2-1.2s-0.5-1.2-1.2-1.2
			S186.6,120.6,186.6,121.2z"/>
		<g transform="matrix(1, 0, 0, 1, 36.6215, 25.9485)">
			<g id="_x30_805-cap">
				<g transform="matrix(0, -1, 1, 0, 1.063, 4.606)">
					<g>
						<path class="st25" d="M-108.5,176.6h-5.1c-0.2,0-0.3-0.1-0.3-0.3v-3c0-0.2,0.1-0.3,0.3-0.3h5.1c0.2,0,0.3,0.1,0.3,0.3v3
							C-108.2,176.5-108.3,176.6-108.5,176.6z"/>
						<g transform="matrix(-2.535182e-06 -1 1 -2.535182e-06 2.2556 2.7529)">
							<rect x="-173.9" y="-115" class="st39" width="3.5" height="3.5"/>
						</g>
					</g>
				</g>
			</g>
		</g>
		<g transform="matrix(1, 0, 0, 1, 23.6615, 39.8445)">
			<g id="_x30_805-cap_1_">
				<path class="st25" d="M178.5,117.4h-5.1c-0.2,0-0.3-0.1-0.3-0.3v-3c0-0.2,0.1-0.3,0.3-0.3h5.1c0.2,0,0.3,0.1,0.3,0.3v3
					C178.7,117.3,178.6,117.4,178.5,117.4z"/>
				<rect x="174.1" y="113.9" class="st39" width="3.5" height="3.5"/>
			</g>
		</g>
		<g transform="matrix(1, 0, 0, 1, 11.6863, 54.1402)">
			<g id="_x30_603-cap_1_">
				<g transform="matrix(0, 1, -1, 0, 3.4015, -1.1335)">
					<g>
						<path class="st25" d="M118.1-170.8h-4c-0.2,0-0.3-0.1-0.3-0.3v-1.7c0-0.2,0.1-0.3,0.3-0.3h4c0.2,0,0.3,0.1,0.3,0.3v1.7
							C118.4-170.9,118.3-170.8,118.1-170.8z"/>
						<g transform="matrix(2.535182e-06 1 -1 2.535182e-06 5.2551 0.0586)">
							<rect x="-173.1" y="-112" class="st39" width="2.3" height="2.3"/>
						</g>
					</g>
				</g>
			</g>
		</g>
		<g transform="matrix(1, 0, 0, 1, 32.9625, 35.8675)">
			<g id="_0402no">
				<g transform="matrix(0, -1, 1, 0, 0.708998, 2.126)">
					<g>
						<path class="st25" d="M-111.3,174.5h-2.3c-0.2,0-0.3-0.1-0.3-0.3v-0.8c0-0.2,0.1-0.3,0.3-0.3h2.3c0.2,0,0.3,0.1,0.3,0.3v0.9
							C-111,174.4-111.1,174.5-111.3,174.5z"/>
						<g transform="matrix(-2.535182e-06 -1 1 -2.535182e-06 1.9016 0.2728)">
							<rect x="-174.2" y="-115" class="st40" width="1.4" height="1.4"/>
						</g>
					</g>
				</g>
			</g>
		</g>
		<g transform="matrix(1, 0, 0, 1, 12.8561, 44.2989)">
			<g id="jst_sh4_skinny">
				<path id="polygon5" class="st22" d="M174.8,118.6l14.2,0l0,1.4l1.4,0l0,10l-17,0l0-10l1.4,0L174.8,118.6z"/>
				<g transform="matrix(1 -0.0068 0.0068 1 -0.0679 0.0887)">
					
						<rect id="rect7" x="186.1" y="122.5" transform="matrix(-1 2.535273e-06 -2.535273e-06 -1 373.6285 249.4151)" width="1.4" height="4.4"/>
				</g>
				<g transform="matrix(1 -0.0068 0.0068 1 -0.0687 0.0114)">
					
						<rect id="rect9" x="174.8" y="122.6" transform="matrix(-1 2.535272e-06 -2.535272e-06 -1 350.9363 249.5697)" width="1.4" height="4.4"/>
				</g>
				<g transform="matrix(1 -0.0068 0.0068 1 -0.048 0.0885)">
					
						<rect id="rect11" x="186.1" y="121.1" transform="matrix(-1 2.535273e-06 -2.535273e-06 -1 373.5855 243.5859)" class="st40" width="1.4" height="1.5"/>
				</g>
				<g transform="matrix(1 -0.0068 0.0068 1 -0.0488 0.0112)">
					
						<rect id="rect13" x="174.7" y="121.1" transform="matrix(-1 2.535271e-06 -2.535271e-06 -1 350.8935 243.7405)" class="st40" width="1.4" height="1.5"/>
				</g>
				<g transform="matrix(1 -0.0068 0.0068 1 -0.0307 0.0787)">
					
						<rect id="rect19" x="184.9" y="117.4" transform="matrix(-1 2.535272e-06 -2.535272e-06 -1 370.7117 238.5046)" class="st25" width="1" height="3.6"/>
				</g>
				<g transform="matrix(1 -0.0068 0.0068 1 -0.0309 0.0594)">
					
						<rect id="rect21" x="182" y="117.5" transform="matrix(-1 2.535272e-06 -2.535272e-06 -1 365.0389 238.5432)" class="st25" width="1" height="3.6"/>
				</g>
				<g transform="matrix(1 -0.0068 0.0068 1 -0.0309 0.0594)">
					
						<rect id="rect4164" x="182" y="117.5" transform="matrix(-1 2.535272e-06 -2.535272e-06 -1 365.0389 238.5432)" class="st25" width="1" height="3.6"/>
				</g>
				<g transform="matrix(1 -0.0068 0.0068 1 -0.0311 0.04)">
					
						<rect id="rect4188" x="179.2" y="117.5" transform="matrix(-1 2.535272e-06 -2.535272e-06 -1 359.3657 238.582)" class="st25" width="1" height="3.6"/>
				</g>
				<g transform="matrix(1 -0.0068 0.0068 1 -0.0313 0.0207)">
					
						<rect id="rect4143" x="176.3" y="117.5" transform="matrix(-1 2.535271e-06 -2.535271e-06 -1 353.6927 238.6206)" class="st25" width="1" height="3.6"/>
				</g>
				<path id="path594" d="M173.4,125.2c0-2.7,0-4.9,0-5l0-0.1h0.7h0.7v-0.7v-0.7h1.1h1.1l0,0.3c0,0.2,0,0.5,0,0.7v0.3h0.2
					c0.1,0,0.3,0,0.5,0l0.3,0v-0.7v-0.7h0.9h0.9l0,0.2c0,0.1,0,0.4,0,0.7v0.4h0.5h0.5v-0.7v-0.7h0.9h0.9l0,0.1c0,0.1,0,0.1,0,0.1
					c0,0,0,0.3,0,0.5l0,0.5l0.5,0l0.5,0l0-0.6l0-0.7h0.9c0.8,0,0.9,0,0.9,0c0,0,0,0.3,0,0.6v0.6h0.3c0.2,0,0.4,0,0.5,0l0.2,0l0-0.6
					l0-0.6h1.2h1.2v0.7v0.7h0.7h0.7l0,1.7c0,0.9,0,3.2,0,5v3.3h-3.3c-1.8,0-5.6,0-8.5,0l-5.3,0L173.4,125.2z M177,125.5
					c0-0.5,0-4.3,0-4.9l0-0.6l-0.7,0c-0.4,0-0.7,0-0.7,0c0,0,0,4.3,0,5.1l0,0.7h0.7h0.7L177,125.5L177,125.5z M188.3,125.7
					c0,0,0-5.5,0-5.7l0-0.1l-0.7,0c-0.4,0-0.7,0-0.7,0c0,0,0,1.9,0,4.6l0,1.2l0.7,0C188,125.7,188.3,125.7,188.3,125.7z"/>
				<path id="path596" d="M175.5,121.3c0-0.1,0-0.4,0-0.7l0-0.6l0.1,0c0.1,0,0.5,0,1,0l0.4,0l0,0.5c0,0.3,0,0.6,0,0.7l0,0.2l-0.7,0
					L175.5,121.3L175.5,121.3z"/>
				<path id="path598" d="M186.9,121.1c0-0.1,0-0.4,0-0.7l0-0.5l0.1,0c0.1,0,0.4,0,0.7,0l0.6,0l0,0.1c0,0.1,0,0.4,0,0.7l0,0.6h-0.7
					h-0.7L186.9,121.1z"/>
				<ellipse id="connector11pin" cx="175.3" cy="132.4" rx="2" ry="2"/>
				<ellipse id="connector12pin" class="st41" cx="179.8" cy="132.4" rx="2" ry="2"/>
				<ellipse id="connector13pin" class="st20" cx="184.3" cy="132.4" rx="2" ry="2"/>
				<ellipse id="connector14pin" class="st19" cx="188.9" cy="132.4" rx="2" ry="2"/>
			</g>
		</g>
		<g transform="matrix(1, 0, 0, 1, 32.902, 23.8591)">
			<g id="sod-323_mini">
				<g transform="matrix(0, -1, 1, 0, -1.91489, 6.16689)">
					<g>
						<g>
							<g transform="matrix(-2.535182e-06 -1 1 -2.535182e-06 -0.7238 4.3154)">
								<rect x="-174.9" y="-113.8" class="st40" width="4.3" height="5.5"/>
							</g>
							<g transform="matrix(-2.535182e-06 -1 1 -2.535182e-06 -4.1254 0.9137)">
								<rect x="-176.8" y="-111.6" class="st25" width="1.1" height="1.3"/>
							</g>
							<g transform="matrix(-2.535182e-06 -1 1 -2.535182e-06 2.6778 7.7168)">
								<rect x="-170" y="-111.6" class="st25" width="1.1" height="1.3"/>
							</g>
							<g transform="matrix(-2.535182e-06 -1 1 -2.535182e-06 -1.9821 3.0571)">
								<rect x="-176.2" y="-111.5" class="st42" width="4.3" height="1"/>
							</g>
						</g>
					</g>
				</g>
			</g>
		</g>
		<g transform="matrix(1, 0, 0, 1, 32.9625, 41.8795)">
			<g id="_0402no_1_">
				<g transform="matrix(0, 1, -1, 0, 2.126, -0.708998)">
					<g>
						<path class="st25" d="M116.4-171.7h-2.3c-0.2,0-0.3-0.1-0.3-0.3v-0.9c0-0.2,0.1-0.3,0.3-0.3h2.3c0.2,0,0.3,0.1,0.3,0.3v0.9
							C116.7-171.8,116.6-171.7,116.4-171.7z"/>
						<g transform="matrix(2.535182e-06 1 -1 2.535182e-06 3.9791 0.4836)">
							<rect x="-173.6" y="-112" class="st40" width="1.4" height="1.4"/>
						</g>
					</g>
				</g>
			</g>
		</g>
		<g transform="matrix(1, 0, 0, 1, 16.1145, 24.2755)">
			<g id="_0402no_2_">
				<path class="st25" d="M175.6,115.3h-2.3c-0.2,0-0.3-0.1-0.3-0.3v-0.8c0-0.2,0.1-0.3,0.3-0.3h2.3c0.2,0,0.3,0.1,0.3,0.3v0.8
					C175.9,115.1,175.8,115.3,175.6,115.3z"/>
				<rect x="173.8" y="113.9" class="st40" width="1.4" height="1.4"/>
			</g>
		</g>
		<g transform="matrix(1, 0, 0, 1, 29.9385, 25.1395)">
			<g id="_0402no_3_">
				<g transform="matrix(0, -1, 1, 0, 0.708998, 2.126)">
					<g>
						<path class="st25" d="M-111.3,174.5h-2.3c-0.2,0-0.3-0.1-0.3-0.3v-0.8c0-0.2,0.1-0.3,0.3-0.3h2.3c0.2,0,0.3,0.1,0.3,0.3v0.9
							C-111,174.4-111.1,174.5-111.3,174.5z"/>
						<g transform="matrix(-2.535182e-06 -1 1 -2.535182e-06 1.9016 0.2729)">
							<rect x="-174.2" y="-115" class="st40" width="1.4" height="1.4"/>
						</g>
					</g>
				</g>
			</g>
		</g>
		<g transform="matrix(1, 0, 0, 1, 26.7705, 25.1395)">
			<g id="_0402no_4_">
				<g transform="matrix(0, 1, -1, 0, 2.126, -0.708998)">
					<g>
						<path class="st25" d="M116.4-171.7h-2.3c-0.2,0-0.3-0.1-0.3-0.3v-0.8c0-0.2,0.1-0.3,0.3-0.3h2.3c0.2,0,0.3,0.1,0.3,0.3v0.9
							C116.7-171.8,116.6-171.7,116.4-171.7z"/>
						<g transform="matrix(2.535182e-06 1 -1 2.535182e-06 3.9791 0.4836)">
							<rect x="-173.6" y="-112" class="st40" width="1.4" height="1.4"/>
						</g>
					</g>
				</g>
			</g>
		</g>
		<g transform="matrix(1, 0, 0, 1, 21.0105, 25.4995)">
			<g id="_0402no_5_">
				<g transform="matrix(0, 1, -1, 0, 2.126, -0.708998)">
					<g>
						<path class="st25" d="M116.4-171.7h-2.3c-0.2,0-0.3-0.1-0.3-0.3v-0.8c0-0.2,0.1-0.3,0.3-0.3h2.3c0.2,0,0.3,0.1,0.3,0.3v0.9
							C116.7-171.8,116.6-171.7,116.4-171.7z"/>
						<g transform="matrix(2.535182e-06 1 -1 2.535182e-06 3.9791 0.4836)">
							<rect x="-173.6" y="-112" class="st40" width="1.4" height="1.4"/>
						</g>
					</g>
				</g>
			</g>
		</g>
		<g transform="matrix(1, 0, 0, 1, 30.882, 49.424)">
			<g id="btn_kmr2_4.6x2.8">
				<g transform="matrix(0, -1, 1, 0, 2.12602, 10.63)">
					<g>
						<g>
							<polygon class="st25" points="-101.1,175.8 -101.1,174.4 -102.5,174.4 -102.5,173.1 -112.4,173.1 -112.4,174.4 -113.9,174.4 
								-113.9,175.8 -112.4,175.8 -112.4,178.9 -113.9,178.9 -113.9,180.3 -112.4,180.3 -112.4,181.6 -102.5,181.6 -102.5,180.3 
								-101.1,180.3 -101.1,178.9 -102.5,178.9 -102.5,175.8 							"/>
							<circle class="st26" cx="-107.5" cy="177.3" r="2.5"/>
							<g transform="matrix(-2.535182e-06 -1 1 -2.535182e-06 -1.7839 3.6744)">
								<rect x="-177.9" y="-111.1" class="st27" width="8.5" height="0.6"/>
							</g>
							<g transform="matrix(-2.535182e-06 -1 1 -2.535182e-06 8.4211 13.8794)">
								<rect x="-167.7" y="-111.1" class="st27" width="8.5" height="0.6"/>
							</g>
						</g>
					</g>
				</g>
			</g>
		</g>
		<g transform="matrix(1, 0, 0, 1, 10.038, 30.704)">
			<g id="btn_kmr2_4.6x2.8_1_">
				<g transform="matrix(0, -1, 1, 0, 2.12602, 10.63)">
					<g>
						<g>
							<polygon class="st25" points="-101.1,175.8 -101.1,174.4 -102.5,174.4 -102.5,173.1 -112.4,173.1 -112.4,174.4 -113.9,174.4 
								-113.9,175.8 -112.4,175.8 -112.4,178.9 -113.9,178.9 -113.9,180.3 -112.4,180.3 -112.4,181.6 -102.5,181.6 -102.5,180.3 
								-101.1,180.3 -101.1,178.9 -102.5,178.9 -102.5,175.8 							"/>
							<circle class="st26" cx="-107.5" cy="177.3" r="2.5"/>
							<g transform="matrix(-2.535182e-06 -1 1 -2.535182e-06 -1.7839 3.6744)">
								<rect x="-177.9" y="-111.1" class="st27" width="8.5" height="0.6"/>
							</g>
							<g transform="matrix(-2.535182e-06 -1 1 -2.535182e-06 8.4211 13.8794)">
								<rect x="-167.7" y="-111.1" class="st27" width="8.5" height="0.6"/>
							</g>
						</g>
					</g>
				</g>
			</g>
		</g>
		<g transform="matrix(1, 0, 0, 1, 22.746, 30.337)">
			<g id="sot23-5">
				<g transform="matrix(0, -1, 1, 0, 0.282996, 7.93706)">
					<g>
						<g>
							<g transform="matrix(-2.535182e-06 -1 1 -2.535182e-06 -1.2174 3.3909)">
								<rect x="-177.3" y="-111.8" class="st25" width="7.7" height="1.1"/>
							</g>
							<g transform="matrix(-2.535182e-06 -1 1 -2.535182e-06 4.1686 8.7769)">
								<rect x="-172" y="-111.8" class="st25" width="7.7" height="1.1"/>
							</g>
							<g transform="matrix(-2.535182e-06 -1 1 -2.535182e-06 -0.7914 8.3509)">
								<rect x="-172.4" y="-109.5" class="st25" width="3.1" height="1.1"/>
							</g>
							<g transform="matrix(-2.535182e-06 -1 1 -2.535182e-06 1.4761 6.0834)">
								<rect x="-173.1" y="-115.3" class="st43" width="4.5" height="8.2"/>
							</g>
						</g>
					</g>
				</g>
			</g>
		</g>
		<g transform="matrix(1, 0, 0, 1, 14.329, 0.465846)">
			<g id="usb_c_cusb31-cfm2ax-01-x">
				<g transform="matrix(-1, 0, 0, -1, 25.342, 21.572)">
					<g>
						<g>
							<rect x="-173.1" y="-113.1" class="st25" width="25.3" height="20.8"/>
							<path class="st25" d="M-169.6-112.5h-0.6v-1.3h0.6V-112.5z M-168.8-113.9h-0.6v1.3h0.6V-113.9z M-167.4-113.9h-0.6v1.3h0.6
								V-113.9z M-166.5-113.9h-0.6v1.3h0.6V-113.9z M-165.1-113.9h-0.6v1.3h0.6V-113.9z M-163.7-113.9h-0.6v1.3h0.6V-113.9z
								 M-162.3-113.9h-0.6v1.3h0.6V-113.9z M-160.8-113.9h-0.6v1.3h0.6V-113.9z M-159.4-113.9h-0.6v1.3h0.6V-113.9z M-158-113.9
								h-0.6v1.3h0.6V-113.9z M-156.6-113.9h-0.6v1.3h0.6V-113.9z M-155.2-113.9h-0.6v1.3h0.6V-113.9z M-153.7-113.9h-0.6v1.3h0.6
								V-113.9z M-152.9-113.9h-0.6v1.3h0.6V-113.9z M-151.5-113.9h-0.6v1.3h0.6V-113.9z M-150.6-113.9h-0.6v1.3h0.6V-113.9z"/>
							<rect x="-171" y="-113.1" class="st44" width="1.3" height="20.8"/>
							<rect x="-151.1" y="-113.1" class="st45" width="1.3" height="20.8"/>
							<path class="st46" d="M-147.7-113.1v2h-0.3c-0.3,0-0.6-0.3-0.6-0.6v-0.5c0-0.3-0.3-0.6-0.6-0.6h-2.8c-0.3,0-0.6,0.3-0.6,0.6
								v2c0,0.3-0.3,0.6-0.6,0.6h-3.4c-0.3,0-0.6-0.3-0.6-0.6v0c0-0.3,0.3-0.6,0.6-0.6h1.5c0.3,0,0.6-0.3,0.6-0.6v-0.7
								c0-0.3-0.3-0.6-0.6-0.6h-10.4c-0.3,0-0.6,0.3-0.6,0.6v0.7c0,0.3,0.3,0.6,0.6,0.6h1.5c0.3,0,0.6,0.3,0.6,0.6v0
								c0,0.3-0.3,0.6-0.6,0.6h-3.4c-0.3,0-0.6-0.3-0.6-0.6v-2c0-0.3-0.3-0.6-0.6-0.6h-2.8c-0.3,0-0.6,0.3-0.6,0.6v0.5
								c0,0.3-0.3,0.6-0.6,0.6h-0.3v-2C-173.1-113.1-147.7-113.1-147.7-113.1z"/>
							<rect x="-167.2" y="-107.3" class="st46" width="3.5" height="1.4"/>
							<rect x="-157.1" y="-107.3" class="st46" width="3.5" height="1.4"/>
						</g>
					</g>
				</g>
			</g>
		</g>
		<g>
			<g transform="matrix(4.496676e-11 -1 1 4.496676e-11 -5.6534 81.9188)">
				
					<rect x="-77.7" y="216" transform="matrix(-2.535182e-06 -1 1 -2.535182e-06 -293.7776 143.0018)" class="st23" width="4.7" height="4.7"/>
			</g>
			<g transform="matrix(4.457863e-11 -1 1 4.457863e-11 -6.24 82.5054)">
				
					<rect x="-76.8" y="217.6" transform="matrix(-2.535182e-06 -1 1 -2.535182e-06 -294.3641 143.5884)" class="st24" width="2.8" height="2.8"/>
			</g>
		</g>
	</g>
</g>
</svg>
